<svg width="113" height="113" viewBox="0 0 113 113" fill="none" xmlns="http://www.w3.org/2000/svg">
<path d="M56.5 63.1211C45.5474 63.1211 36.6367 54.2104 36.6367 43.2578V32.2227C36.6367 31.0037 37.6248 30.0156 38.8438 30.0156C40.0627 30.0156 41.0508 31.0037 41.0508 32.2227V43.2578C41.0508 51.7765 47.9813 58.707 56.5 58.707C65.0187 58.707 71.9492 51.7765 71.9492 43.2578V32.2227C71.9492 31.0037 72.9373 30.0156 74.1562 30.0156C75.3752 30.0156 76.3633 31.0037 76.3633 32.2227V43.2578C76.3633 54.2104 67.4526 63.1211 56.5 63.1211Z" fill="black"/>
<path d="M79.4531 45.4648H74.1562C72.9373 45.4648 71.9492 44.4768 71.9492 43.2578V27.8086C71.9492 26.5897 72.9373 25.6016 74.1562 25.6016H79.4531C83.8343 25.6016 87.3984 29.1657 87.3984 33.5469V37.5195C87.3984 41.9007 83.8343 45.4648 79.4531 45.4648ZM76.3633 41.0508H79.4531C81.4002 41.0508 82.9844 39.4666 82.9844 37.5195V33.5469C82.9844 31.5998 81.4002 30.0156 79.4531 30.0156H76.3633V41.0508Z" fill="black"/>
<path d="M91.8125 109.468H21.1875C19.9686 109.468 18.9805 108.48 18.9805 107.261V85.0299C18.9805 77.5935 24.0412 71.2319 31.2871 69.5597L47.6719 65.7788V59.6289C47.6719 58.4102 48.66 57.4219 49.8789 57.4219C51.0979 57.4219 52.0859 58.4102 52.0859 59.6289V67.5345C52.0859 68.5621 51.3766 69.4539 50.3753 69.685L32.2798 73.861C27.0483 75.0682 23.3948 79.661 23.3948 85.0299V105.054H89.6057V85.0299C89.6057 79.661 85.952 75.068 80.7206 73.861L62.625 69.685C61.6234 69.4539 60.9141 68.5621 60.9141 67.5345V59.6289C60.9141 58.4102 61.9021 57.4219 63.1211 57.4219C64.34 57.4219 65.3281 58.4102 65.3281 59.6289V65.7788L81.7129 69.5599C88.9588 71.2322 94.0195 77.5935 94.0195 85.0301V107.261C94.0195 108.48 93.0314 109.468 91.8125 109.468Z" fill="black"/>
<path d="M64.004 84.7502L55.1758 78.1291C54.2008 77.398 54.0032 76.0144 54.7344 75.0393L61.3555 66.2112C62.0867 65.2361 63.4703 65.0381 64.4454 65.7698C65.4204 66.501 65.618 67.8845 64.8868 68.8596L59.5899 75.9221L64.5374 79.6328L70.0563 68.6036C70.6017 67.5135 71.9272 67.0713 73.0177 67.6175C74.1077 68.1629 74.5491 69.4888 74.0038 70.5787L67.3017 83.972C66.6864 85.2022 65.105 85.5759 64.004 84.7502Z" fill="black"/>
<path d="M45.6956 83.9663L39.0367 70.5632C38.4942 69.4716 38.9396 68.1471 40.0312 67.6047C41.1228 67.0622 42.4475 67.508 42.9897 68.5994L48.4689 79.6281L53.4105 75.9219L48.1136 68.8594C47.3824 67.8843 47.5799 66.5007 48.555 65.7695C49.5301 65.0383 50.9134 65.2361 51.6448 66.2109L58.2659 75.039C58.9971 76.0141 58.7996 77.3977 57.8245 78.1289L48.9964 84.75C47.8935 85.5772 46.3091 85.2009 45.6956 83.9663Z" fill="black"/>
<path d="M60.9141 89.6055H52.0859C50.867 89.6055 49.8789 88.6172 49.8789 87.3984V79.8945C49.8789 78.6758 50.867 77.6875 52.0859 77.6875C53.3049 77.6875 54.293 78.6758 54.293 79.8945V85.1914H58.707V79.8945C58.707 78.6758 59.6951 77.6875 60.9141 77.6875C62.133 77.6875 63.1211 78.6758 63.1211 79.8945V87.3984C63.1211 88.6172 62.133 89.6055 60.9141 89.6055Z" fill="black"/>
<path d="M63.1214 109.469H49.8792C48.5651 109.469 47.5404 108.326 47.6856 107.018L49.8926 87.1548C50.0169 86.0371 50.9615 85.1914 52.0862 85.1914H60.9143C62.039 85.1914 62.9836 86.0369 63.1079 87.1548L65.3149 107.018C65.4599 108.324 64.4372 109.469 63.1214 109.469ZM52.3451 105.055H60.6555L58.939 89.6055H54.0615L52.3451 105.055Z" fill="black"/>
<path d="M80.7773 109.469C79.5584 109.469 78.5703 108.48 78.5703 107.262V91.8125C78.5703 90.5938 79.5584 89.6055 80.7773 89.6055C81.9963 89.6055 82.9844 90.5938 82.9844 91.8125V107.262C82.9844 108.48 81.9963 109.469 80.7773 109.469Z" fill="black"/>
<path d="M32.2227 109.469C31.0037 109.469 30.0156 108.48 30.0156 107.262V91.8125C30.0156 90.5938 31.0037 89.6055 32.2227 89.6055C33.4416 89.6055 34.4297 90.5938 34.4297 91.8125V107.262C34.4297 108.48 33.4416 109.469 32.2227 109.469Z" fill="black"/>
<path d="M76.3633 30.0156C75.1443 30.0156 74.1562 29.0275 74.1562 27.8086V14.1985C74.1562 10.7504 71.3511 7.94531 67.9031 7.94531H45.0969C41.6489 7.94531 38.8438 10.7504 38.8438 14.1985V27.8086C38.8438 29.0275 37.8557 30.0156 36.6367 30.0156C35.4178 30.0156 34.4297 29.0275 34.4297 27.8086V14.1985C34.4297 8.31654 39.215 3.53125 45.0969 3.53125H67.9028C73.785 3.53125 78.5703 8.31654 78.5703 14.1985V27.8086C78.5703 29.0275 77.5822 30.0156 76.3633 30.0156Z" fill="black"/>
<path d="M52.0859 30.0156H38.8438C37.6248 30.0156 36.6367 29.0275 36.6367 27.8086C36.6367 26.5897 37.6248 25.6016 38.8438 25.6016H52.0859C55.7368 25.6016 58.707 22.6313 58.707 18.9805C58.707 17.7615 59.6951 16.7734 60.9141 16.7734C62.133 16.7734 63.1211 17.7615 63.1211 18.9805C63.1211 25.0653 58.1707 30.0156 52.0859 30.0156Z" fill="black"/>
<path d="M74.1562 30.0156H69.7422C63.6574 30.0156 58.707 25.0653 58.707 18.9805C58.707 17.7615 59.6951 16.7734 60.9141 16.7734C62.133 16.7734 63.1211 17.7615 63.1211 18.9805C63.1211 22.6313 66.0913 25.6016 69.7422 25.6016H74.1562C75.3752 25.6016 76.3633 26.5897 76.3633 27.8086C76.3633 29.0275 75.3752 30.0156 74.1562 30.0156Z" fill="black"/>
<path d="M77.8347 54.293H56.5C55.2811 54.293 54.293 53.3049 54.293 52.0859C54.293 50.867 55.2811 49.8789 56.5 49.8789H77.8347C80.6743 49.8789 82.9844 47.5688 82.9844 44.7292V36.6367C82.9844 35.4178 83.9725 34.4297 85.1914 34.4297C86.4104 34.4297 87.3984 35.4178 87.3984 36.6367V44.7292C87.3984 50.0027 83.1082 54.293 77.8347 54.293Z" fill="#6155A8"/>
<path d="M38.8438 45.4648H33.5469C29.1657 45.4648 25.6016 41.9007 25.6016 37.5195V33.5469C25.6016 29.1657 29.1657 25.6016 33.5469 25.6016H38.8438C40.0627 25.6016 41.0508 26.5897 41.0508 27.8086V43.2578C41.0508 44.4768 40.0627 45.4648 38.8438 45.4648ZM33.5469 30.0156C31.5998 30.0156 30.0156 31.5998 30.0156 33.5469V37.5195C30.0156 39.4666 31.5998 41.0508 33.5469 41.0508H36.6367V30.0156H33.5469Z" fill="black"/>
</svg>
