<svg width="61" height="58" viewBox="0 0 61 58" fill="none" xmlns="http://www.w3.org/2000/svg">
<g clip-path="url(#clip0_267_257)">
<path d="M45.3947 57.9996H15.5879C15.7535 57.7599 15.8394 57.5939 15.9621 57.4648C18.3974 54.8707 21.3357 53.3215 24.9366 53.1617C25.3476 53.1433 25.5685 53.0265 25.5132 52.5777C25.501 52.4793 25.5132 52.3748 25.5132 52.2703C25.5378 50.3155 25.9365 49.8975 27.8566 49.7868C27.9302 49.7868 28.0038 49.7499 28.2553 49.6885C28.562 46.5349 29.0896 43.326 29.1448 40.1171C29.2797 32.396 29.1939 24.675 29.1939 16.954C29.1939 14.87 28.335 13.4746 26.691 13.0443C26.1512 12.9029 25.5255 12.909 24.9734 13.0258C22.5994 13.5115 20.4769 14.5872 18.4403 15.8782C16.8945 16.8556 15.3609 17.8761 13.7414 18.7182C9.55779 20.9005 5.72996 19.4559 3.93873 15.0729C3.5952 14.2307 3.37437 13.3393 3.25781 12.3926C3.58907 12.9213 3.92032 13.45 4.25771 13.9725C6.04281 16.7757 8.74806 17.6486 11.7784 16.3085C12.7967 15.8597 13.7598 15.2757 14.6861 14.6549C16.0786 13.7205 17.3914 12.657 18.7777 11.7164C20.9984 10.2165 23.4705 9.57102 26.1451 9.65094C27.2186 9.68167 27.4517 9.49111 27.4946 8.45221C27.513 7.95427 27.7339 7.6715 28.2062 7.62847C28.746 7.57929 28.9055 7.25348 28.8749 6.79858C28.7276 4.75152 29.3349 2.82126 29.7705 0.860263C29.8748 0.386919 30.0711 -0.0618357 30.5557 0.0180796C30.844 0.0672581 31.1998 0.503718 31.2857 0.835674C31.7703 2.70446 32.3162 4.57325 32.1997 6.54039C32.1629 7.16127 32.2672 7.58544 33.0094 7.74527C33.2487 7.79444 33.5186 8.34156 33.537 8.67351C33.586 9.49725 34.0584 9.75544 34.7393 9.70626C38.561 9.42963 41.6957 10.948 44.5911 13.284C45.9897 14.409 47.5172 15.4294 49.1244 16.2101C52.4369 17.8269 55.3998 16.7634 57.191 13.5176C57.3812 13.1672 57.6082 12.8414 57.9088 12.3558C57.3199 15.9642 54.9152 19.1055 52.4062 19.5789C50.4801 19.9416 48.7072 19.5789 47.0571 18.6014C45.3088 17.5625 43.6464 16.3577 41.849 15.4233C40.0823 14.5012 38.2298 13.6774 36.3342 13.075C34.0093 12.3373 32.0157 13.868 31.9052 16.3023C31.8316 17.9314 31.8807 19.5604 31.8807 21.1956C31.8807 27.9208 31.8194 34.6521 31.9359 41.3773C31.9727 43.7071 32.4696 46.0247 32.7518 48.3483C32.7579 48.3975 32.7824 48.4467 32.7763 48.4959C32.6904 49.4487 33.0094 49.879 34.0768 49.8667C34.9847 49.8544 35.4754 50.5983 35.5674 51.6863C35.5858 51.9384 35.5981 52.1966 35.5674 52.4486C35.5122 52.9773 35.7331 53.1433 36.2606 53.174C39.9106 53.3707 42.898 54.9137 45.2659 57.6923C45.3088 57.7476 45.3211 57.8275 45.3824 58.0058L45.3947 57.9996Z" fill="black"/>
<path d="M7.04236 25.7761C4.93828 30.2944 2.83419 34.8065 0.668767 39.46H18.5749C16.1519 34.2655 13.7472 29.1018 11.3425 23.9442L11.5082 23.8643C13.054 26.8887 14.606 29.9132 16.1519 32.9439C17.1088 34.8249 18.0228 36.7245 19.0105 38.5871C19.4153 39.3555 19.3601 39.9887 18.9185 40.7202C18.0228 42.2079 16.7162 43.173 15.1581 43.8185C11.2567 45.4475 7.37361 45.3123 3.55805 43.5357C2.04286 42.8288 0.846663 41.7222 0.135078 40.1915C-0.0244147 39.8534 -0.0550865 39.3063 0.104407 38.9867C2.2821 34.6159 4.50274 30.2759 6.7111 25.9236C6.75404 25.8375 6.82766 25.7699 6.889 25.6962L7.04236 25.7761Z" fill="#6155A8"/>
<path d="M49.2838 24.8043C48.7562 26.0031 48.2532 27.208 47.7011 28.3944C46.0755 31.8738 44.4254 35.3409 42.7875 38.8141C42.4992 39.4288 42.5973 39.5456 43.3887 39.5456C48.5538 39.5456 53.725 39.5456 58.8902 39.5456C59.3686 39.5456 59.8471 39.5456 60.4667 39.5456C58.3319 34.9659 56.234 30.4722 54.1422 25.9785C54.179 25.9539 54.2158 25.9232 54.2526 25.8986C54.3323 25.9662 54.4428 26.0154 54.4857 26.1014C56.4364 29.962 58.3871 33.8225 60.3317 37.683C60.3685 37.7506 60.3931 37.8244 60.4299 37.892C61.3746 39.7669 61.1844 40.7382 59.5404 42.1767C57.148 44.2668 54.2771 44.9799 51.1916 44.943C48.8666 44.9184 46.6644 44.3344 44.6401 43.1541C43.4132 42.441 42.5053 41.4206 41.9103 40.1542C41.7569 39.8223 41.7876 39.2813 41.9532 38.9432C43.6586 35.5314 45.4191 32.1443 47.1552 28.7448C47.8299 27.417 48.4802 26.083 49.1427 24.749L49.2838 24.8105V24.8043Z" fill="#6155A8"/>
</g>
<defs>
<clipPath id="clip0_267_257">
<rect width="61" height="58" fill="white"/>
</clipPath>
</defs>
</svg>
