<svg width="42" height="66" viewBox="0 0 42 66" fill="none" xmlns="http://www.w3.org/2000/svg">
<g clip-path="url(#clip0_267_527)">
<path d="M37.6416 36.7529C36.9297 46.5645 34.967 56.1232 33.5252 65.8813C32.989 65.917 32.5014 65.9735 32.0137 65.9765C24.5987 65.9824 17.1807 65.9646 9.76574 66.0033C8.82373 66.0092 8.45419 65.7652 8.31486 64.8129C7.19413 57.2154 6.00071 49.6268 4.87089 42.0292C4.61646 40.327 4.52256 38.601 4.34082 36.7559H37.6446L37.6416 36.7529ZM22.015 47.4335C23.1902 47.3323 24.1474 47.249 25.1682 47.1627C25.1258 46.4306 25.0924 45.9158 25.0652 45.4307C23.165 45.1788 22.0786 44.4566 21.806 43.2642H20.0855C19.9946 43.9547 19.922 44.526 19.8341 45.1867C18.8436 45.2492 17.9137 45.3087 16.9778 45.3682V47.2609C18.0076 47.3055 18.9345 47.3442 20.0068 47.3919V54.4745H22.012V47.4305L22.015 47.4335Z" fill="black"/>
<path d="M28.0332 20.2806C28.0332 22.0334 28.0272 23.7862 28.0363 25.539C28.0393 26.2324 28.0181 26.8097 27.0337 26.8008C22.8991 26.7681 18.7645 26.777 14.63 26.7621C14.4906 26.7621 14.3513 26.6699 14.0756 26.5746V19.7389C12.7247 21.4412 12.4309 23.0363 12.3976 24.7087C12.3552 26.8008 12.3612 26.8187 10.2834 26.7978C7.32706 26.7681 7.63904 27.2115 7.68448 24.1641C7.85713 13.177 17.9194 10.3172 25.392 12.3467C32.6464 14.3168 34.7001 19.8967 34.2881 25.905C34.1579 27.7769 32.0467 26.4437 30.8896 26.774C30.1172 26.9942 29.6538 26.6728 29.5599 25.6967C29.3993 24.0481 28.9995 22.4202 28.6754 20.7894C28.633 20.5811 28.4361 20.4055 28.3119 20.2151C28.221 20.2389 28.1271 20.2597 28.0363 20.2835L28.0332 20.2806ZM21.1181 21.584C21.2816 21.465 21.4422 21.3459 21.6057 21.2269V13.5847C21.4694 13.4895 21.3331 13.3943 21.1938 13.299C20.8969 13.6502 20.3578 13.9924 20.3426 14.3585C20.2578 16.3761 20.2609 18.4027 20.3396 20.4204C20.3547 20.8192 20.8454 21.2001 21.1181 21.587V21.584Z" fill="black"/>
<path d="M4.27997 31.0567H0V28.1016H42V31.0358H37.7503C37.7503 32.1756 37.6776 33.1606 37.7685 34.1308C37.8836 35.3747 37.196 35.4699 36.2055 35.467C30.199 35.4402 24.1926 35.4521 18.1861 35.4521C14.1484 35.4521 10.1077 35.3836 6.07313 35.4908C4.55863 35.5295 4.09823 35.0295 4.26482 33.6368C4.35569 32.8601 4.27997 32.0655 4.27997 31.0596V31.0567Z" fill="black"/>
<path d="M20.9662 10.6661C17.8676 10.6214 15.5383 8.26749 15.5746 5.22014C15.611 2.25612 18.1099 -0.0650954 21.1964 0.000374928C24.0467 0.0598934 26.4669 2.48825 26.4699 5.29454C26.473 8.27046 23.974 10.7077 20.9662 10.6661Z" fill="#6155A8"/>
<path d="M17.362 40.3565L12.1794 41.9129C12.1794 41.9129 12.0643 45.2549 12.9911 47.6118C13.918 49.9687 14.3057 51.9804 14.3057 51.9804C14.3057 51.9804 18.0556 56.0842 19.9124 56.3878C21.7691 56.6913 24.7073 56.6913 24.7073 56.6913L28.8055 52.5875L28.8449 45.8262L28.8055 41.0767L22.1145 40.3535H17.3589L17.362 40.3565Z" fill="black"/>
<path d="M16.665 45.2546H19.8364V42.8232H22.1172V45.4837H25.1674V47.1621H22.0142V54.221H20.009V47.3943H16.665V45.2546Z" fill="#6155A8"/>
</g>
<defs>
<clipPath id="clip0_267_527">
<rect width="42" height="66" fill="white"/>
</clipPath>
</defs>
</svg>
