<svg width="74" height="44" viewBox="0 0 74 44" fill="none" xmlns="http://www.w3.org/2000/svg">
<g clip-path="url(#clip0_267_513)">
<path d="M31.4712 23.8908C30.0667 25.4982 28.6666 27.0091 27.8091 29.0012C28.012 29.0319 28.1854 29.0784 28.3605 29.081C28.9622 29.0898 29.5656 29.0635 30.1664 29.095C30.3728 29.1055 30.6155 29.1949 30.7681 29.3317C32.7638 31.1125 34.7492 32.9048 36.7294 34.705C36.9331 34.8908 37.0597 34.8952 37.2608 34.7068C39.1352 32.9522 41.0226 31.2098 42.8944 29.4526C43.1666 29.1967 43.4397 29.067 43.8194 29.081C44.565 29.1082 45.3132 29.0889 46.1854 29.0889C45.2534 27.2072 44.226 25.5157 42.8293 24.0004C42.942 23.9907 43.0088 23.9636 43.0565 23.9837C45.0124 24.8154 46.963 25.6603 48.9215 26.4859C51.0785 27.3956 52.646 28.9232 53.4939 31.1169C53.8233 31.9697 53.9924 32.9136 54.0808 33.8303C54.3123 36.2379 54.4606 38.6542 54.64 41.0678C54.6764 41.5613 54.5967 41.726 53.9681 41.9066C52.5446 42.315 51.1219 42.7585 49.6706 43.0293C45.0089 43.9013 40.2831 44.0608 35.5624 43.9846C32.0503 43.9276 28.5322 43.7296 25.0478 43.1976C23.3555 42.939 21.6935 42.5376 20.0844 41.9346C19.3449 41.6577 19.2886 41.5806 19.3657 40.8137C19.6206 38.2729 19.8859 35.7331 20.1365 33.1923C20.3844 30.677 21.4543 28.6288 23.5905 27.2712C24.4635 26.7155 25.4596 26.3509 26.415 25.9364C28.0215 25.2396 29.641 24.5718 31.2562 23.8934C31.2883 23.8794 31.3316 23.8917 31.4721 23.8917L31.4712 23.8908Z" fill="#6155A8"/>
<path d="M10.3188 19.8752C11.067 22.1854 11.8212 24.5132 12.5764 26.8418C12.6041 26.8418 12.631 26.8401 12.6587 26.8392C12.9778 25.7288 13.2968 24.6192 13.6167 23.5088C13.6575 23.3659 13.7312 23.224 13.7312 23.0811C13.7312 22.9146 13.7095 22.7191 13.6211 22.5886C13.4806 22.3791 13.263 22.224 13.1035 22.0259C12.6084 21.4106 12.9084 20.5929 13.6895 20.5246C14.3112 20.4702 14.9423 20.5421 15.57 20.5482C16.2289 20.5544 16.6138 21.5956 16.0884 22.0241C15.4217 22.5693 15.4616 23.1872 15.6957 23.9242C16.0052 24.8971 16.2315 25.8971 16.5817 26.9128C17.3022 24.5579 18.0218 22.2029 18.7492 19.8252C18.8419 19.855 18.9373 19.8655 19.0119 19.9111C20.4285 20.7814 22.0012 21.181 23.5964 21.5596C24.55 21.7858 25.4647 22.188 26.3906 22.5281C26.5103 22.5719 26.5935 22.7156 26.6941 22.8129C26.5805 22.89 26.4756 22.9838 26.3533 23.0417C24.9055 23.7297 23.3762 24.2836 22.022 25.1249C19.656 26.5947 18.1865 28.7945 17.7313 31.5868C17.3924 33.6639 17.1687 35.7612 16.9112 37.8515C16.8479 38.3677 16.8722 38.3659 16.3355 38.3835C13.2942 38.4816 10.2598 38.3388 7.23931 37.9961C5.22187 37.7674 3.21571 37.4343 1.20955 37.117C0.359919 36.983 -0.0371521 36.486 0.00272843 35.6227C0.145778 32.5167 0.264553 29.4089 0.487363 26.309C0.661624 23.8865 2.00109 22.4825 4.57598 21.7963C5.72471 21.4904 6.89252 21.2503 8.02391 20.8883C8.79291 20.6429 9.51163 20.2389 10.3188 19.876V19.8752Z" fill="#6155A8"/>
<path d="M55.1153 19.8687C55.867 22.1764 56.6264 24.5103 57.3859 26.8442C57.4136 26.8381 57.4414 26.8328 57.4691 26.8267C57.737 25.9003 58.0058 24.9748 58.2728 24.0484C58.2876 23.9967 58.2928 23.9397 58.3153 23.8924C58.6629 23.1597 58.6343 22.5287 57.907 22.0169C57.62 21.8144 57.5879 21.4691 57.7128 21.1308C57.8341 20.8013 58.0457 20.562 58.4081 20.5462C59.0219 20.519 59.6426 20.4621 60.2504 20.5208C61.067 20.6006 61.3601 21.3622 60.885 22.0388C60.8616 22.0721 60.8434 22.1133 60.8122 22.1343C60.1437 22.5935 60.272 23.1895 60.4758 23.8424C60.761 24.7557 60.9864 25.6891 61.2387 26.6128C61.2664 26.7136 61.3072 26.8118 61.3653 26.98C62.1135 24.5383 62.84 22.1667 63.5457 19.8652C64.5791 20.2956 65.5224 20.739 66.5003 21.0773C67.2295 21.3297 68.0141 21.4121 68.7562 21.6312C69.5226 21.8582 70.2933 22.1045 71.0172 22.4393C72.4599 23.1063 73.2618 24.3061 73.4404 25.8758C73.6251 27.4998 73.7378 29.1334 73.8314 30.7653C73.9207 32.3306 73.9441 33.9003 73.997 35.4682C74.0308 36.4796 73.6225 36.9993 72.6393 37.1264C69.7098 37.5033 66.7847 37.9441 63.8448 38.2088C61.7441 38.3981 59.6218 38.3403 57.509 38.4016C57.1588 38.4121 57.1223 38.1921 57.105 37.9336C57.0417 36.9897 57.0192 36.0405 56.9073 35.1019C56.7435 33.7224 56.6845 32.2982 56.2823 30.9862C55.3329 27.8863 53.3866 25.5716 50.4146 24.2184C49.5017 23.8021 48.5784 23.4077 47.662 22.9985C47.5233 22.9371 47.3967 22.8486 47.2285 22.7522C48.2221 22.1194 49.2633 21.7995 50.3314 21.5445C51.1498 21.3499 51.9812 21.1878 52.7728 20.9108C53.5504 20.64 54.2848 20.243 55.1162 19.8661L55.1153 19.8687Z" fill="#6155A8"/>
<path d="M31.4795 20.8044C31.2601 20.8044 31.1318 20.8044 31.0035 20.8044C30.3212 20.807 29.6363 20.7763 28.9566 20.821C28.3662 20.8596 28.0471 20.6107 27.8304 20.0752C27.3813 18.9648 27.0692 17.8193 26.9825 16.6291C26.7476 13.4109 27.3345 10.353 28.9106 7.53006C29.7126 6.09272 30.7651 4.85083 32.1028 3.87975C33.0808 3.16985 34.1593 2.70447 35.3748 2.70096C36.7636 2.69746 38.1569 2.70184 39.5405 2.80613C41.0031 2.91568 42.0556 3.84469 43.0422 4.84469C45.3822 7.21367 46.5309 10.1357 46.9453 13.4021C47.2184 15.5564 47.0571 17.6633 46.3133 19.7115C46.263 19.8508 46.2136 19.9911 46.1555 20.1269C45.8928 20.7448 45.7116 20.864 45.0588 20.857C44.6175 20.8517 44.1762 20.8464 43.7349 20.8386C43.6968 20.8386 43.6586 20.8175 43.5555 20.7877C43.63 20.417 43.7037 20.0419 43.7809 19.6668C44.0349 18.431 44.2109 17.1935 43.9898 15.928C43.7575 14.5975 42.535 12.9385 41.3837 12.4985C42.0183 13.4529 43.024 14.169 42.8307 15.5712C42.5784 15.2654 42.3877 15.0349 42.1978 14.8035C41.1366 13.5064 39.8379 12.4976 38.4377 11.6054C37.322 10.8947 36.2842 10.0734 35.5377 8.95951C35.1528 8.38457 34.891 7.72462 34.5771 7.10149C34.5121 6.97178 34.4644 6.8333 34.3682 6.5993C32.4687 8.47309 31.3104 10.665 30.7963 13.211C30.2805 15.7658 30.5778 18.261 31.4795 20.8035V20.8044Z" fill="black"/>
<path d="M65.8462 6.17473C65.8012 6.68919 65.75 7.4175 65.6676 8.1423C65.6278 8.49112 65.6997 8.74616 66.0248 8.91443C66.3586 9.08621 66.4609 9.38595 66.4809 9.75317C66.5268 10.591 66.3517 11.3579 65.8887 12.0625C64.994 13.4228 64.1955 14.8583 63.2003 16.1379C61.9518 17.7435 60.263 18.4604 58.2239 17.9398C56.8619 17.5919 55.8631 16.6839 55.0985 15.5393C54.2835 14.3202 53.5396 13.0529 52.7689 11.8031C52.3632 11.1449 52.2271 10.4157 52.3441 9.66202C52.3857 9.39471 52.5548 9.08884 52.7611 8.91969C53.068 8.66816 53.114 8.4026 53.1001 8.03888C53.0611 6.98718 52.9943 5.93021 53.0619 4.88288C53.1712 3.17999 54.0286 1.88902 55.5025 1.07394C58.0799 -0.352877 60.7069 -0.359889 63.2705 1.07219C65.1371 2.11426 65.8566 3.86097 65.8462 6.17561V6.17473ZM53.4313 9.19839C53.0567 9.70497 53.0429 10.2299 53.277 10.7795C53.3671 10.9898 53.4278 11.2159 53.537 11.414C54.267 12.7348 54.9788 14.0669 55.7521 15.3605C56.2411 16.1782 56.9668 16.7628 57.8745 17.0748C59.8382 17.7488 61.9067 17.1256 63.0442 15.3719C63.9285 14.0091 64.6507 12.5384 65.4396 11.1125C65.7942 10.4718 65.7153 9.8487 65.3261 9.23871C65.0894 9.33599 64.851 9.43503 64.5458 9.56036C64.6481 8.75843 64.7409 8.03363 64.8354 7.29305C64.1921 7.21855 63.6251 7.1388 63.0546 7.08884C60.8256 6.8934 58.7917 6.21767 57.1159 4.64975C56.6876 4.24923 56.222 4.22556 55.7105 4.4806C54.5393 5.06605 53.876 6.35703 54.0451 7.71373C54.1153 8.27815 54.1561 8.84607 54.2176 9.48849C53.8951 9.3693 53.6732 9.28779 53.4313 9.19839Z" fill="black"/>
<path d="M21.0661 6.0838C21.0011 6.74287 20.9474 7.40282 20.8685 8.06014C20.8242 8.42824 20.8815 8.72797 21.223 8.92867C21.5282 9.10746 21.6418 9.39318 21.6695 9.74112C21.7311 10.5071 21.5967 11.2249 21.1918 11.8778C20.4393 13.0917 19.6946 14.3117 18.9143 15.508C18.3465 16.3783 17.6095 17.0987 16.6827 17.565C14.837 18.4948 13.09 18.2582 11.5356 16.9138C10.985 16.4379 10.5125 15.841 10.1033 15.2319C9.36727 14.1373 8.71271 12.9865 8.01047 11.8682C7.57351 11.1723 7.43046 10.4107 7.54837 9.61667C7.58739 9.35462 7.77552 9.06189 7.98272 8.89362C8.22461 8.69817 8.2983 8.52201 8.28703 8.21877C8.24888 7.16618 8.19253 6.10922 8.24195 5.05838C8.32864 3.2214 9.22422 1.84892 10.8264 0.994405C13.1221 -0.22996 15.495 -0.307085 17.8644 0.7455C20.0388 1.71132 21.1147 3.58511 21.0661 6.0838ZM9.42449 9.51325C9.28057 9.45365 9.18347 9.42035 9.09331 9.37477C8.65549 9.15654 8.60087 9.17845 8.3954 9.64384C8.18733 10.1154 8.33385 10.5764 8.54278 10.9699C9.35687 12.5027 10.1198 14.0768 11.0804 15.5132C12.758 18.0207 16.6819 17.8726 18.2138 15.4563C18.5883 14.8664 18.91 14.2416 19.2516 13.6316C19.7059 12.8209 20.1688 12.0137 20.604 11.1925C20.9482 10.543 20.9881 9.88222 20.552 9.24419C20.3006 9.3327 20.0518 9.42122 19.7275 9.53603C19.8333 8.82263 19.9148 8.22315 20.0136 7.62631C20.0544 7.38003 19.9668 7.27311 19.7293 7.25032C19.2507 7.20387 18.7739 7.13989 18.2944 7.09695C16.0551 6.89537 14.0012 6.23805 12.3202 4.64646C11.8797 4.22929 11.3925 4.22578 10.8767 4.49309C9.71232 5.09519 9.06817 6.37039 9.23202 7.74375C9.30051 8.31693 9.35687 8.89099 9.42449 9.515V9.51325Z" fill="black"/>
<path d="M36.7569 29.0898C35.5917 29.053 34.352 28.6954 33.2891 27.8374C33.0437 27.6393 32.8357 27.3825 32.6458 27.1257C32.4074 26.8023 32.4949 26.4894 32.7628 26.2186C33.0359 25.9426 33.3844 25.8917 33.7122 26.0977C33.8699 26.1967 34.0113 26.3238 34.1543 26.4448C35.7426 27.7962 38.0617 27.8418 39.7055 26.5525C39.885 26.4114 40.0523 26.2546 40.2396 26.1257C40.5673 25.8996 40.9106 25.9312 41.1924 26.1923C41.5227 26.4982 41.6068 26.7971 41.3207 27.1547C41.0164 27.535 40.6479 27.8891 40.2456 28.159C39.3024 28.7918 38.1172 29.0942 36.7569 29.0907V29.0898Z" fill="black"/>
</g>
<defs>
<clipPath id="clip0_267_513">
<rect width="74" height="44" fill="white"/>
</clipPath>
</defs>
</svg>
