<svg width="112" height="110" viewBox="0 0 112 110" fill="none" xmlns="http://www.w3.org/2000/svg">
<path d="M81.0641 37.1219H69.1208L79.0697 25.8934C80.3551 24.4439 81.0641 22.5825 81.0641 20.6557V20.3287C81.0641 15.943 77.4494 12.374 73.0076 12.374C68.5658 12.374 64.9512 15.943 64.9512 20.3287V22.9803H68.5318V20.3287C68.5318 17.891 70.5388 15.9094 73.0076 15.9094C75.4765 15.9094 77.4834 17.891 77.4834 20.3287V20.6557C77.4834 21.727 77.0896 22.7593 76.3752 23.5654L64.9512 36.4573V40.6573H81.0641V37.1219Z" fill="white"/>
<path d="M95.3874 40.6573H98.9681V35.3542H102.549V31.8188H98.9681V12.374H94.281L84.6455 31.4016V35.3542H95.3874V40.6573ZM88.4374 31.8188L95.3874 18.0943V31.8188H88.4374Z" fill="white"/>
<path d="M88.9509 55.9073C101.825 53.139 111.5 41.8116 111.5 28.2833C111.5 12.6886 98.6491 0 82.8548 0C69.1535 0 57.6811 9.55269 54.8775 22.2643C51.7175 21.5784 48.4932 21.2125 45.2581 21.2125C20.5785 21.2125 0.5 41.0373 0.5 65.4052C0.5 89.773 20.5785 109.598 45.2581 109.598C69.9377 109.598 90.0161 89.773 90.0161 65.4052C90.0161 62.2109 89.6455 59.0273 88.9509 55.9073ZM82.8548 3.53541C96.6761 3.53541 107.919 14.6366 107.919 28.2833C107.919 41.93 96.6761 53.0312 82.8548 53.0312C69.0335 53.0312 57.7903 41.93 57.7903 28.2833C57.7903 14.6366 69.0335 3.53541 82.8548 3.53541ZM79.2044 63.6375H75.6936V67.1729H79.1829C78.7622 75.0993 75.5593 82.2921 70.5052 87.8338L68.0435 85.4032L65.512 87.9028L67.9737 90.3334C62.361 95.3254 55.0762 98.486 47.0484 98.9015V95.4562H43.4677V98.9015C35.4399 98.486 28.1551 95.3236 22.5425 90.3334L25.0041 87.9028L22.4726 85.4032L20.0109 87.8338C14.9551 82.2921 11.754 75.0993 11.3332 67.1729H14.8226V63.6375H11.3332C11.754 55.7111 14.9569 48.5183 20.0109 42.9765L22.4726 45.4071L25.0041 42.9076L22.5425 40.477C28.1551 35.485 35.4399 32.3243 43.4677 31.9089V35.3541H47.0484V31.8877C49.6229 32.022 52.1723 32.4498 54.6662 33.1604C56.7358 44.8467 66.0777 54.0706 77.9153 56.1159C78.6333 58.5783 79.0665 61.0955 79.2044 63.6375ZM45.2581 106.062C22.5514 106.062 4.08065 87.825 4.08065 65.4052C4.08065 42.9853 22.5514 24.7479 45.2581 24.7479C48.3124 24.7479 51.3577 25.1032 54.3386 25.7679C54.2634 26.5987 54.2097 27.4348 54.2097 28.2833C54.2097 28.6528 54.2509 29.0134 54.2652 29.3811C51.3111 28.6581 48.2927 28.2833 45.2581 28.2833C24.5279 28.2833 7.66129 44.9369 7.66129 65.4052C7.66129 85.8735 24.5279 102.527 45.2581 102.527C65.9882 102.527 82.8548 85.8735 82.8548 65.4052C82.8548 62.4089 82.4753 59.4286 81.743 56.5118C82.1154 56.526 82.4807 56.5666 82.8548 56.5666C83.7142 56.5666 84.561 56.5136 85.4025 56.4394C86.0756 59.3826 86.4355 62.3895 86.4355 65.4052C86.4355 87.825 67.9647 106.062 45.2581 106.062Z" fill="white"/>
<path d="M50.6287 65.4043C50.6287 63.1027 49.1266 61.1582 47.048 60.4264V38.8887H43.4674V60.4264C41.3888 61.1582 39.8867 63.1027 39.8867 65.4043C39.8867 68.3281 42.2965 70.7074 45.2577 70.7074C46.0848 70.7074 46.8582 70.5077 47.5583 70.1753L60.1048 82.5634L62.6364 80.0639L50.0898 67.6758C50.4263 66.9846 50.6287 66.221 50.6287 65.4043ZM43.4674 65.4043C43.4674 64.4285 44.2694 63.6366 45.2577 63.6366C46.2459 63.6366 47.048 64.4285 47.048 65.4043C47.048 66.3801 46.2459 67.172 45.2577 67.172C44.2694 67.172 43.4674 66.3801 43.4674 65.4043Z" fill="#DFBB00"/>
<path d="M98.968 60.1025C96.0068 60.1025 93.5971 62.4819 93.5971 65.4057C93.5971 67.6171 94.9774 69.5138 96.9306 70.3075C95.8081 81.9461 90.6663 92.9006 82.3359 101.29L84.8925 103.765C93.8423 94.7531 99.3476 82.9714 100.513 70.4578C102.719 69.7984 104.339 67.7974 104.339 65.4057C104.339 62.4819 101.929 60.1025 98.968 60.1025ZM98.968 67.1734C97.9798 67.1734 97.1777 66.3814 97.1777 65.4057C97.1777 64.4299 97.9798 63.638 98.968 63.638C99.9563 63.638 100.758 64.4299 100.758 65.4057C100.758 66.3814 99.9563 67.1734 98.968 67.1734Z" fill="white"/>
<path d="M10.433 26.7405C18.7724 19.1022 29.5018 14.4054 40.7772 13.3431C41.59 15.2575 43.5039 16.6062 45.7328 16.6062C48.694 16.6062 51.1038 14.2269 51.1038 11.3031C51.1038 8.37933 48.694 6 45.7328 6C43.3123 6 41.2839 7.59978 40.6161 9.77759C28.4938 10.8806 16.9588 15.9451 8 24.149L10.433 26.7405ZM45.7328 9.53541C46.7211 9.53541 47.5232 10.3273 47.5232 11.3031C47.5232 12.2789 46.7211 13.0708 45.7328 13.0708C44.7446 13.0708 43.9425 12.2789 43.9425 11.3031C43.9425 10.3273 44.7446 9.53541 45.7328 9.53541Z" fill="white"/>
</svg>
