<svg width="111" height="110" viewBox="0 0 111 110" fill="none" xmlns="http://www.w3.org/2000/svg">
<path d="M80.5641 37.1219H68.6208L78.5697 25.8934C79.8551 24.4439 80.5641 22.5825 80.5641 20.6557V20.3287C80.5641 15.943 76.9494 12.374 72.5076 12.374C68.0658 12.374 64.4512 15.943 64.4512 20.3287V22.9803H68.0318V20.3287C68.0318 17.891 70.0388 15.9094 72.5076 15.9094C74.9765 15.9094 76.9834 17.891 76.9834 20.3287V20.6557C76.9834 21.727 76.5896 22.7593 75.8752 23.5654L64.4512 36.4573V40.6573H80.5641V37.1219Z" fill="white"/>
<path d="M94.8874 40.6573H98.4681V35.3542H102.049V31.8188H98.4681V12.374H93.781L84.1455 31.4016V35.3542H94.8874V40.6573ZM87.9374 31.8188L94.8874 18.0943V31.8188H87.9374Z" fill="white"/>
<path d="M88.4509 55.9073C101.325 53.139 111 41.8116 111 28.2833C111 12.6886 98.1491 0 82.3548 0C68.6535 0 57.1811 9.55269 54.3775 22.2643C51.2175 21.5784 47.9932 21.2125 44.7581 21.2125C20.0785 21.2125 0 41.0373 0 65.4052C0 89.773 20.0785 109.598 44.7581 109.598C69.4377 109.598 89.5161 89.773 89.5161 65.4052C89.5161 62.2109 89.1455 59.0273 88.4509 55.9073ZM82.3548 3.53541C96.1761 3.53541 107.419 14.6366 107.419 28.2833C107.419 41.93 96.1761 53.0312 82.3548 53.0312C68.5335 53.0312 57.2903 41.93 57.2903 28.2833C57.2903 14.6366 68.5335 3.53541 82.3548 3.53541ZM78.7044 63.6375H75.1936V67.1729H78.6829C78.2622 75.0993 75.0593 82.2921 70.0052 87.8338L67.5435 85.4032L65.012 87.9028L67.4737 90.3334C61.861 95.3254 54.5762 98.486 46.5484 98.9015V95.4562H42.9677V98.9015C34.9399 98.486 27.6551 95.3236 22.0425 90.3334L24.5041 87.9028L21.9726 85.4032L19.5109 87.8338C14.4551 82.2921 11.254 75.0993 10.8332 67.1729H14.3226V63.6375H10.8332C11.254 55.7111 14.4569 48.5183 19.5109 42.9765L21.9726 45.4071L24.5041 42.9076L22.0425 40.477C27.6551 35.485 34.9399 32.3243 42.9677 31.9089V35.3541H46.5484V31.8877C49.1229 32.022 51.6723 32.4498 54.1662 33.1604C56.2358 44.8467 65.5777 54.0706 77.4153 56.1159C78.1333 58.5783 78.5665 61.0955 78.7044 63.6375ZM44.7581 106.062C22.0514 106.062 3.58065 87.825 3.58065 65.4052C3.58065 42.9853 22.0514 24.7479 44.7581 24.7479C47.8124 24.7479 50.8577 25.1032 53.8386 25.7679C53.7634 26.5987 53.7097 27.4348 53.7097 28.2833C53.7097 28.6528 53.7509 29.0134 53.7652 29.3811C50.8111 28.6581 47.7927 28.2833 44.7581 28.2833C24.0279 28.2833 7.16129 44.9369 7.16129 65.4052C7.16129 85.8735 24.0279 102.527 44.7581 102.527C65.4882 102.527 82.3548 85.8735 82.3548 65.4052C82.3548 62.4089 81.9753 59.4286 81.243 56.5118C81.6154 56.526 81.9807 56.5666 82.3548 56.5666C83.2142 56.5666 84.061 56.5136 84.9025 56.4394C85.5756 59.3826 85.9355 62.3895 85.9355 65.4052C85.9355 87.825 67.4647 106.062 44.7581 106.062Z" fill="white"/>
<path d="M50.1287 65.4043C50.1287 63.1027 48.6266 61.1582 46.548 60.4264V38.8887H42.9674V60.4264C40.8888 61.1582 39.3867 63.1027 39.3867 65.4043C39.3867 68.3281 41.7965 70.7074 44.7577 70.7074C45.5848 70.7074 46.3582 70.5077 47.0583 70.1753L59.6048 82.5634L62.1364 80.0639L49.5898 67.6758C49.9263 66.9846 50.1287 66.221 50.1287 65.4043ZM42.9674 65.4043C42.9674 64.4285 43.7694 63.6366 44.7577 63.6366C45.7459 63.6366 46.548 64.4285 46.548 65.4043C46.548 66.3801 45.7459 67.172 44.7577 67.172C43.7694 67.172 42.9674 66.3801 42.9674 65.4043Z" fill="#17AEE7"/>
<path d="M98.468 60.1025C95.5068 60.1025 93.0971 62.4819 93.0971 65.4057C93.0971 67.6171 94.4774 69.5138 96.4306 70.3075C95.3081 81.9461 90.1663 92.9006 81.8359 101.29L84.3925 103.765C93.3423 94.7531 98.8476 82.9714 100.013 70.4578C102.219 69.7984 103.839 67.7974 103.839 65.4057C103.839 62.4819 101.429 60.1025 98.468 60.1025ZM98.468 67.1734C97.4798 67.1734 96.6777 66.3814 96.6777 65.4057C96.6777 64.4299 97.4798 63.638 98.468 63.638C99.4563 63.638 100.258 64.4299 100.258 65.4057C100.258 66.3814 99.4563 67.1734 98.468 67.1734Z" fill="white"/>
<path d="M9.93305 26.7405C18.2724 19.1022 29.0018 14.4054 40.2772 13.3431C41.09 15.2575 43.0039 16.6062 45.2328 16.6062C48.194 16.6062 50.6038 14.2269 50.6038 11.3031C50.6038 8.37933 48.194 6 45.2328 6C42.8123 6 40.7839 7.59978 40.1161 9.77759C27.9938 10.8806 16.4588 15.9451 7.5 24.149L9.93305 26.7405ZM45.2328 9.53541C46.2211 9.53541 47.0232 10.3273 47.0232 11.3031C47.0232 12.2789 46.2211 13.0708 45.2328 13.0708C44.2446 13.0708 43.4425 12.2789 43.4425 11.3031C43.4425 10.3273 44.2446 9.53541 45.2328 9.53541Z" fill="white"/>
</svg>
