<svg width="132" height="123" viewBox="0 0 132 123" fill="none" xmlns="http://www.w3.org/2000/svg">
<path d="M49.8479 51.5213C47.4661 47.1447 46.1263 42.1281 46.1263 36.7988C46.1263 19.7243 59.9705 5.89495 77.0302 5.89495C94.0898 5.89495 107.934 19.7392 107.934 36.7988C107.934 51.3427 97.8858 63.5047 84.3542 66.7946C84.2649 69.0722 83.6843 71.2158 82.6721 73.1212C100.312 70.397 113.829 55.1982 113.829 36.7988C113.829 16.4791 97.3499 0 77.0302 0C56.7104 0 40.2463 16.4791 40.2463 36.8137C40.2463 42.0536 41.3627 47.0256 43.3277 51.5362H49.8479V51.5213ZM113.829 63.2963C107.964 68.4172 91.7527 83.9138 91.7527 83.9138L62.3077 82.44L53.495 76.5451H68.2175C72.609 76.5451 78.5188 73.4934 78.5188 66.2438C78.5188 58.9942 72.5196 55.9425 68.2175 55.9425H28.1884C21.7129 55.9425 19.8075 58.5923 15.2225 61.8375C8.25573 66.7499 0.5 72.1387 0.5 72.1387L3.44748 76.56L25.5238 61.8375H68.2026C70.6142 61.8375 72.6238 64.2639 72.6238 66.2587C72.6238 68.2534 71.6265 70.6799 68.2026 70.6799H49.0738C45.8733 70.6799 43.7594 75.7114 46.1263 78.0337C48.4932 80.3708 58.7052 88.335 60.8488 88.335C62.9924 88.335 89.5495 89.8087 91.7527 89.8087C93.9558 89.8087 114.261 69.876 116.776 67.7324C120.156 64.8445 125.604 67.7324 125.604 67.7324L93.2264 100.095H31.4038C28.0395 100.095 0.5 116.291 0.5 116.291L3.44748 122.171L32.8925 105.975H91.7675C96.2334 105.975 99.1214 101.554 99.1214 101.554C99.1214 101.554 131.365 70.9627 131.499 66.2438C131.633 61.5248 119.099 58.7262 113.829 63.2963ZM79.9777 54.4688V47.115H94.7001V41.2349H79.9777V35.3399H94.7001V29.445H87.2124L93.2264 23.4309L88.9392 19.1437L78.6379 29.445H75.4225L65.1212 19.1437L60.8339 23.4309L66.848 29.445H59.3602V35.3399H74.0827V41.22H59.3602V47.1001H74.0827V54.4539H79.9777V54.4688Z" fill="white"/>
<path d="M79.9778 54.4686V47.1148H94.7003V41.2347H79.9778V35.3398H94.7003V29.4448H87.2125L93.2266 23.4308L88.9393 19.1436L78.638 29.4448H75.4226L65.1213 19.1436L60.8341 23.4308L66.8481 29.4448H59.3604V35.3398H74.0828V41.2199H59.3604V47.0999H74.0828V54.4537H79.9778V54.4686Z" fill="#17AEE7"/>
</svg>
