<svg width="129" height="104" viewBox="0 0 129 104" fill="none" xmlns="http://www.w3.org/2000/svg">
<g clip-path="url(#clip0_243_118)">
<path d="M62.4326 91.989C62.4326 94.456 62.4586 96.7738 62.4261 99.0948C62.3839 102.145 60.6133 103.941 57.5789 103.97C53.9533 104.006 50.3243 104.009 46.6954 103.974C43.7163 103.944 41.9619 102.246 41.8482 99.2504C41.7703 97.2017 41.884 95.1432 41.78 93.0945C41.754 92.6082 41.3154 91.8885 40.8866 91.7103C37.6508 90.3682 34.3695 89.1331 30.7828 87.7424C29.4508 89.0942 27.8784 90.7151 26.2735 92.31C23.7557 94.8126 21.3256 94.8028 18.7948 92.2905C16.3777 89.8884 13.9638 87.4831 11.5629 85.068C9.30503 82.7956 9.30503 80.2476 11.5597 77.9525C12.9242 76.5618 14.2919 75.1744 15.6987 73.8323C16.2802 73.278 16.4231 72.8663 16.0528 72.0429C14.75 69.1448 13.6259 66.169 12.3427 63.2612C12.1477 62.8203 11.4785 62.3373 11.0041 62.3113C8.95091 62.2076 6.89117 62.2951 4.83468 62.2595C1.87828 62.2076 0.0686986 60.4441 0.029713 57.4974C-0.0190189 53.8246 -0.0190189 50.1485 0.029713 46.4757C0.0686986 43.5322 1.87178 41.7817 4.84443 41.7266C6.84569 41.6877 8.85345 41.6747 10.8547 41.7363C11.7644 41.7623 12.125 41.4446 12.4531 40.5823C13.5642 37.6648 14.8572 34.8121 15.9878 31.901C16.1632 31.4472 16.069 30.6335 15.7571 30.2931C14.3797 28.7728 12.8625 27.3789 11.4297 25.9071C9.33752 23.7546 9.34401 21.171 11.4622 19.025C14.0093 16.4479 16.5661 13.8805 19.1586 11.3487C21.2671 9.28697 23.8012 9.2967 25.9291 11.3487C27.4106 12.7718 28.8725 14.2176 30.2858 15.712C30.8803 16.3377 31.3384 16.3052 32.0953 15.9681C34.9056 14.72 37.7385 13.5174 40.6169 12.4379C41.5558 12.0846 41.8645 11.6534 41.832 10.7068C41.7735 8.87204 41.793 7.034 41.8222 5.19596C41.8775 1.69817 43.5636 0.0254554 47.0333 0.0124886C50.4998 -0.000478145 53.963 -0.00371984 57.4295 0.0157303C60.5905 0.0351805 62.3644 1.77921 62.4164 4.91393C62.4489 6.91081 62.4651 8.91418 62.4066 10.9111C62.3806 11.7636 62.699 12.1235 63.4982 12.386C65.4962 13.0473 67.465 13.8059 69.4338 14.5547C70.2492 14.8627 71.0484 15.4073 70.4701 16.3247C70.233 16.6975 69.1511 16.8207 68.5793 16.6456C66.2045 15.9195 63.8978 14.9761 61.5262 14.237C60.5321 13.9258 60.1 13.4688 60.1227 12.4217C60.1715 10.0455 60.152 7.66937 60.1325 5.28997C60.1162 3.10182 59.3657 2.33354 57.2345 2.32382C53.7681 2.31085 50.3049 2.30437 46.8384 2.3303C44.9508 2.34327 44.1939 3.09534 44.1679 4.99821C44.1321 7.42948 44.1224 9.86075 44.1711 12.292C44.1939 13.3942 43.7358 13.861 42.7092 14.2565C39.0933 15.6569 35.5098 17.1546 31.9621 18.7203C31.007 19.1417 30.3735 19.0931 29.6652 18.3637C27.9694 16.6197 26.2443 14.9016 24.5029 13.1997C23.0539 11.7831 22.0338 11.7701 20.6043 13.1738C18.1353 15.6018 15.6857 18.046 13.2523 20.5065C11.8131 21.9587 11.8423 23.0155 13.327 24.5197C15.0002 26.2119 16.6733 27.9073 18.3854 29.5573C19.1684 30.3126 19.1879 30.948 18.7265 31.9691C17.1541 35.4507 15.6889 38.9809 14.3277 42.55C13.9053 43.6619 13.3628 44.0898 12.2224 44.0671C9.84108 44.0217 7.45646 44.0314 5.0751 44.0606C3.09658 44.0833 2.32336 44.8548 2.31037 46.8225C2.28763 50.2814 2.28763 53.7371 2.31037 57.196C2.32336 59.1475 3.10632 59.9222 5.09134 59.9481C7.47271 59.9806 9.85732 60 12.2387 59.9352C13.405 59.906 13.9086 60.3631 14.3309 61.4588C15.6954 65.0246 17.1639 68.5548 18.733 72.0364C19.1911 73.0543 19.1749 73.6897 18.3822 74.445C16.6636 76.0885 14.9969 77.7904 13.3205 79.4793C11.8391 80.9738 11.8131 82.037 13.2556 83.4926C15.6922 85.9498 18.1385 88.3972 20.6076 90.8253C22.0273 92.2224 23.0572 92.2062 24.5062 90.7929C26.2085 89.1299 27.9076 87.4604 29.5515 85.7455C30.3475 84.9157 31.0167 84.8573 32.1051 85.3501C35.5391 86.9093 39.025 88.3551 42.5532 89.6874C43.7098 90.1251 44.2101 90.6308 44.1711 91.8723C44.0964 94.2485 44.1256 96.6247 44.1581 99.0041C44.1841 100.881 44.9703 101.659 46.8384 101.672C50.3568 101.695 53.8785 101.695 57.397 101.672C59.3203 101.659 60.1065 100.849 60.126 98.8679C60.152 96.4918 60.1844 94.1124 60.1097 91.7362C60.0707 90.5368 60.5418 89.976 61.6854 89.7199C62.8939 89.4476 64.0505 88.9062 65.2656 88.702C65.8666 88.6015 66.9127 88.7992 67.1271 89.1979C67.6502 90.1769 66.7568 90.5951 65.9478 90.8642C64.8205 91.2402 63.6899 91.5936 62.4164 92.002L62.4326 91.989Z" fill="white"/>
<path d="M81.7922 87.6844C78.4361 87.6844 75.0769 87.6293 71.7241 87.7103C70.2005 87.746 69.5572 87.2565 69.6189 85.668C69.7131 83.2951 69.5799 80.9125 69.6579 78.5396C69.7749 74.9413 68.3259 72.2831 65.3857 70.163C47.9137 57.5788 50.5355 30.851 70.0835 21.8164C83.1469 15.7804 98.6632 20.5165 106.09 32.8057C113.543 45.1436 110.525 61.1414 98.8938 69.7837C95.5118 72.2961 93.8744 75.2492 94.1733 79.4181C94.326 81.5673 94.1668 83.7392 94.2091 85.8982C94.2351 87.2208 93.6665 87.72 92.3508 87.7038C88.8323 87.6552 85.3139 87.6876 81.7954 87.6876L81.7922 87.6844ZM91.6718 78.5914C92.4103 74.0963 94.5664 70.4007 98.1401 67.5048C108.065 59.4654 110.723 45.5877 104.443 34.6114C98.1109 23.5475 84.7713 18.5812 72.9392 23.1552C63.6964 26.7276 57.9135 33.5319 56.3801 43.325C54.7524 53.7374 58.573 62.2014 67.0199 68.4903C70.1582 70.8276 71.8996 73.7483 71.9353 77.6611C71.9353 77.9172 72.0068 78.1732 72.0685 78.5947C73.3095 78.5947 74.5051 78.478 75.6552 78.6465C76.1815 78.7243 76.6233 79.3727 77.1041 79.7649C76.6103 80.1345 76.1522 80.7504 75.6194 80.825C74.4694 80.9903 73.2803 80.8768 72.0295 80.8768V85.305H91.7205V80.8801C90.7816 80.8801 89.9759 80.8801 89.1702 80.8801C87.0065 80.8801 84.8363 80.9417 82.6791 80.825C82.2178 80.799 81.7954 80.1312 81.3536 79.7584C81.7857 79.3727 82.1658 78.8702 82.6693 78.6368C83.0722 78.452 83.6277 78.5947 84.1151 78.5947C86.6459 78.5947 89.1767 78.5947 91.675 78.5947L91.6718 78.5914Z" fill="white"/>
<path d="M52.2016 76.6694C38.2253 76.3031 27.2833 64.9766 27.7414 51.0892C28.193 37.4547 39.8919 26.8738 53.6181 27.6777C54.518 27.7296 55.5316 27.762 55.4569 28.9582C55.3789 30.1965 54.3101 29.9858 53.4524 29.9599C42.4032 29.6227 32.9882 36.5113 30.6588 46.8426C28.7583 55.2872 31.013 62.6588 37.4716 68.4161C43.8879 74.1312 51.4024 75.4052 59.5894 72.7664C60.4893 72.4779 61.6881 71.5184 62.2112 72.9998C62.7505 74.5364 61.1715 74.705 60.2424 74.9384C57.5849 75.6062 54.8851 76.1021 52.2049 76.6662L52.2016 76.6694Z" fill="white"/>
<path d="M52.0713 82.8353C37.0456 82.8191 24.3753 72.29 21.6755 57.5339C21.5099 56.6262 20.8503 55.242 22.3221 54.9275C24.0082 54.5677 23.7353 56.1756 23.9205 57.1286C27.5559 75.629 46.753 85.6134 63.9976 77.9565C64.342 77.8042 64.7026 77.5221 65.0405 77.5481C65.5116 77.5837 66.2848 77.7653 66.3595 78.0376C66.4797 78.4752 66.2036 79.0782 65.9567 79.5385C65.8332 79.7719 65.4109 79.8497 65.1152 79.9858C60.9795 81.8984 56.6391 82.8904 52.0713 82.8385V82.8353Z" fill="white"/>
<path d="M72.0456 94.4917C72.0456 98.5308 74.8168 101.513 78.5334 101.646C80.8011 101.727 83.0785 101.73 85.3462 101.646C89.0725 101.503 91.9705 98.2877 91.6748 94.4982C90.5247 94.4982 89.3519 94.4949 88.1824 94.4982C87.3279 94.5014 86.3468 94.443 86.5222 93.3311C86.5937 92.887 87.5196 92.3262 88.1044 92.2614C89.5469 92.1058 91.0186 92.2419 92.4805 92.1998C93.6274 92.1674 94.1374 92.6407 94.2056 93.8044C94.5403 99.4547 90.5085 103.873 84.8459 103.974C82.8998 104.009 80.9505 104.009 79.0045 103.974C73.2509 103.86 69.1964 99.3704 69.635 93.6715C69.713 92.6666 70.1385 92.2063 71.1457 92.2095C74.336 92.2192 77.5296 92.1641 80.7166 92.2646C81.2234 92.2808 81.7075 92.9746 82.2046 93.3538C81.7075 93.7331 81.2234 94.4203 80.7134 94.4398C77.8609 94.5468 75.002 94.4917 72.0488 94.4917H72.0456Z" fill="white"/>
<path d="M52.9617 21.2171C54.2645 21.3857 56.4672 21.6483 58.6569 21.9724C59.4983 22.0956 60.4275 22.4684 60.0246 23.4928C59.8622 23.9077 58.7901 24.287 58.2248 24.18C47.7344 22.235 38.7385 24.9937 31.237 32.5695C30.6295 33.1822 29.9862 33.8078 29.187 33.0169C28.4008 32.2389 28.9921 31.5387 29.5834 30.9292C35.7268 24.5917 43.2348 21.4116 52.9617 21.2139V21.2171Z" fill="white"/>
<path d="M21.3281 49.131C21.7732 44.9233 22.8388 41.2699 24.7036 37.8824C24.9083 37.5096 25.6555 37.4382 26.1526 37.2275C26.341 37.7754 26.8511 38.4724 26.6724 38.8451C25.1227 42.0836 24.0766 45.4452 23.5958 49.0078C23.5406 49.4163 22.7738 49.9512 22.2898 50.0031C21.9551 50.0387 21.5425 49.345 21.3281 49.1343V49.131Z" fill="white"/>
<path d="M99.14 18.5299C98.8541 17.6449 98.3278 16.8766 98.5292 16.5006C100.238 13.327 102.048 10.2052 103.922 7.12886C104.124 6.79821 105.066 6.57453 105.4 6.76579C105.729 6.95057 106.008 7.88417 105.819 8.22131C104.114 11.3366 102.317 14.4032 100.508 17.4601C100.316 17.7843 99.8774 17.9658 99.1367 18.5331L99.14 18.5299Z" fill="#17AEE7"/>
<path d="M122.902 70.1048C122.639 71.2588 122.022 71.7451 121.105 71.2361C117.99 69.5116 114.903 67.7286 111.859 65.8809C111.512 65.6701 111.515 64.8921 111.353 64.3767C111.915 64.2438 112.633 63.8191 113.013 64.0234C116.099 65.6896 119.127 67.466 122.152 69.2425C122.486 69.4402 122.691 69.8552 122.902 70.1048Z" fill="#17AEE7"/>
<path d="M112.314 31.0322C112.008 30.7859 111.385 30.5168 111.375 30.2251C111.359 29.7323 111.586 29.0191 111.963 28.7663C113.253 27.8878 114.65 27.1714 116.001 26.3901C117.635 25.4468 119.234 24.4257 120.926 23.6088C121.365 23.3981 122.109 23.8195 122.71 23.9524C122.492 24.4873 122.43 25.275 122.034 25.5181C119.136 27.2881 116.173 28.9511 113.227 30.64C112.996 30.7729 112.739 30.8539 112.314 31.0355V31.0322Z" fill="#17AEE7"/>
<path d="M83.0396 7.08027C83.0396 8.69139 83.1306 10.3122 82.9876 11.9136C82.9422 12.4323 82.2924 12.8991 81.9188 13.3886C81.5257 12.9088 80.8077 12.442 80.7914 11.9525C80.694 8.56821 80.694 5.18064 80.7947 1.79631C80.8077 1.32303 81.5549 0.87243 81.9643 0.412109C82.3216 0.862705 82.9519 1.29061 82.9844 1.7639C83.1078 3.53062 83.0331 5.30707 83.0364 7.08351L83.0396 7.08027Z" fill="#17AEE7"/>
<path d="M122.408 48.4888C120.738 48.4888 119.062 48.5763 117.401 48.4369C116.895 48.3948 116.443 47.7172 115.969 47.3315C116.466 46.9587 116.95 46.2747 117.457 46.2585C120.793 46.1612 124.136 46.1612 127.476 46.2585C127.993 46.2747 128.493 46.9392 129.003 47.3023C128.477 47.6978 127.976 48.385 127.418 48.4369C125.761 48.5893 124.081 48.492 122.411 48.4888H122.408Z" fill="#17AEE7"/>
<path d="M83.5554 27.6553C90.3259 28.5759 95.3258 31.6166 98.7338 37.1016C98.9645 37.4744 98.5973 38.2167 98.5064 38.784C97.8891 38.5441 97.0054 38.489 96.6968 38.0384C94.4259 34.7189 91.4922 32.2714 87.6846 30.9521C86.4176 30.5112 85.0369 30.401 83.7666 29.9731C83.2858 29.811 82.675 29.2016 82.649 28.7672C82.6262 28.3684 83.3117 27.9276 83.5522 27.6553H83.5554Z" fill="#17AEE7"/>
<path d="M101.746 47.3809C101.642 48.3988 101.665 49.4491 101.386 50.4152C101.252 50.8787 100.551 51.177 100.109 51.5497C99.7937 51.1121 99.2316 50.6907 99.2089 50.2369C99.1211 48.4734 99.1341 46.6937 99.2706 44.9334C99.3031 44.5088 99.9366 44.1295 100.291 43.7275C100.69 44.0874 101.304 44.3791 101.441 44.82C101.691 45.6239 101.658 46.5154 101.746 47.3777V47.3809Z" fill="#17AEE7"/>
</g>
<defs>
<clipPath id="clip0_243_118">
<rect width="129" height="104" fill="white"/>
</clipPath>
</defs>
</svg>
