<svg width="140" height="98" viewBox="0 0 140 98" fill="none" xmlns="http://www.w3.org/2000/svg">
<path d="M125.031 71.9996C127.303 69.5454 128.676 66.3769 128.676 62.9199C128.676 55.1498 121.75 48.8286 113.235 48.8286C104.721 48.8286 97.7941 55.1498 97.7941 62.9199C97.7941 66.3689 99.1612 69.5309 101.424 71.9829C99.4349 72.8752 97.5696 73.9975 95.8676 75.3287C92.5227 71.4613 88.1599 68.3605 83.1526 66.3624C86.4739 63.3049 88.5294 59.1003 88.5294 54.4651C88.5294 45.1411 80.2173 37.5557 70 37.5557C59.7827 37.5557 51.4706 45.1411 51.4706 54.4651C51.4706 59.1003 53.5261 63.3049 56.8474 66.3624C51.8398 68.3605 47.477 71.4613 44.1324 75.3287C42.4302 73.9975 40.5651 72.8752 38.576 71.9829C40.8388 69.5309 42.2059 66.3689 42.2059 62.9199C42.2059 55.1498 35.2792 48.8286 26.7647 48.8286C18.2502 48.8286 11.3235 55.1498 11.3235 62.9199C11.3235 66.3769 12.6972 69.5454 14.9693 71.9996C6.11004 75.9858 0 84.3138 0 93.9206C0 95.9958 1.84361 97.6782 4.11765 97.6782C17.2647 97.6782 123.209 97.6782 135.882 97.6782C138.156 97.6782 140 95.9958 140 93.9206C140 84.3138 133.89 75.9858 125.031 71.9996ZM106.029 62.9199C106.029 59.2937 109.262 56.344 113.235 56.344C117.209 56.344 120.441 59.2937 120.441 62.9199C120.441 66.546 117.209 69.4958 113.235 69.4958C109.262 69.4958 106.029 66.5458 106.029 62.9199ZM59.7059 54.4651C59.7059 49.2851 64.3237 45.071 70 45.071C75.6763 45.071 80.2941 49.2851 80.2941 54.4651C80.2941 59.6452 75.6763 63.8593 70 63.8593C64.3237 63.8593 59.7059 59.645 59.7059 54.4651ZM19.5588 62.9199C19.5588 59.2937 22.7912 56.344 26.7647 56.344C30.7382 56.344 33.9706 59.2937 33.9706 62.9199C33.9706 66.546 30.7382 69.4958 26.7647 69.4958C22.7912 69.4958 19.5588 66.5458 19.5588 62.9199ZM26.7647 77.0111C31.721 77.0111 36.3522 78.7772 39.8042 81.9129C38.5662 84.4954 37.7135 87.2653 37.3158 90.1629H8.69647C10.5741 82.6416 17.9626 77.0111 26.7647 77.0111ZM45.6373 90.1629C47.6033 79.5135 57.7797 71.3746 70 71.3746C82.2204 71.3746 92.3967 79.5135 94.3627 90.1629H45.6373ZM102.684 90.1629C102.286 87.2653 101.434 84.4954 100.196 81.9129C103.648 78.7772 108.279 77.0111 113.235 77.0111C122.037 77.0111 129.426 82.6418 131.304 90.1629H102.684Z" fill="white"/>
<path d="M49.6191 26.4722C48.0111 27.9394 48.0111 30.3188 49.6191 31.7863C51.2267 33.2535 53.834 33.2538 55.4423 31.7863C63.4695 24.4609 76.5313 24.4609 84.5585 31.7863C86.1666 33.254 88.7739 33.2538 90.3817 31.7863C91.9897 30.3188 91.9897 27.9397 90.3817 26.4722C79.1435 16.2163 60.8573 16.2163 49.6191 26.4722Z" fill="#17AEE7"/>
<path d="M40.8837 18.5001C56.9387 3.84922 83.0611 3.84922 99.1163 18.5001C100.724 19.9678 103.332 19.9676 104.939 18.5001C106.548 17.0326 106.548 14.6535 104.939 13.186C85.6739 -4.39534 54.3262 -4.39534 35.0606 13.186C33.4525 14.6535 33.4525 17.0326 35.0606 18.5001C36.6681 19.9676 39.2754 19.9678 40.8837 18.5001Z" fill="#17AEE7"/>
</svg>
