<svg width="45" height="49" viewBox="0 0 45 49" fill="none" xmlns="http://www.w3.org/2000/svg">
<path d="M22.5203 48.9991C16.2706 48.9991 10.0209 48.9991 3.77116 48.9991C1.18151 48.9991 -0.203382 47.4699 0.0254641 44.8195C0.404906 40.4269 0.747437 36.0298 1.22432 31.6494C1.49156 29.1876 2.91926 27.5185 5.2151 26.7775C7.32196 26.0974 9.47755 25.577 11.6006 24.941C12.6489 24.6276 13.5303 24.9137 14.05 25.8113C15.649 28.5729 18.1397 29.6288 21.066 29.9027C23.2969 30.1111 25.4909 29.9285 27.5667 28.9669C28.8542 28.3705 29.8921 27.4759 30.6436 26.2267C31.4542 24.8802 32.1865 24.6109 33.685 25.0354C35.5084 25.5527 37.3318 26.0654 39.1537 26.5873C42.1051 27.4317 43.6022 29.2804 43.8783 32.4208C44.2474 36.611 44.6121 40.8012 44.9797 44.9899C45.1879 47.3558 43.7439 48.993 41.4171 48.9945C35.1186 49.0006 28.8187 48.996 22.5203 48.996V48.9991Z" fill="white"/>
<path d="M25.3799 25.73C23.9478 26.6277 22.4433 26.8209 20.8695 26.3964C18.8733 25.8578 17.329 24.6193 16.198 22.9C13.2836 18.4724 12.6103 13.6219 14.1532 8.55377C15.4037 4.44267 18.8143 2.34756 23.2908 2.59252C27.1959 2.80553 30.2536 5.52446 31.1808 9.68729C31.95 13.1396 31.6444 16.531 30.4264 19.8327C29.9495 21.1229 27.7555 22.2792 26.4636 22.0845C25.6708 21.9643 24.8396 21.9886 24.0393 22.0784C23.1889 22.1743 22.7283 23.0065 22.7888 24.1005C22.8375 24.9982 23.4133 25.657 24.2431 25.7255C24.6196 25.7574 25.002 25.7315 25.3814 25.7315L25.3799 25.73Z" fill="white"/>
<path d="M31.799 19.5121C31.2129 19.3615 31.2616 19.0054 31.3915 18.5307C32.2995 15.2428 32.3763 11.9517 31.4432 8.64247C30.0642 3.7478 26.1251 1.18255 21.12 1.88091C17.6976 2.35715 15.1183 4.07036 13.8324 7.38115C13.2403 8.90722 13.0882 10.6478 12.9273 12.3108C12.7221 14.4424 12.9805 16.5634 13.6079 18.6159C13.8043 19.2595 13.574 19.4436 13.0026 19.436C12.2895 19.4269 11.5764 19.4345 10.8618 19.433C10.3155 19.433 10.0379 19.1652 10.0749 18.587C10.1029 18.1503 10.097 17.7684 9.64817 17.4794C9.46066 17.3576 9.37355 16.9484 9.3706 16.6684C9.34698 14.692 9.35731 12.714 9.36027 10.7361C9.36027 10.5854 9.33517 10.38 9.41637 10.2948C9.92869 9.75165 10.1398 9.12327 10.1664 8.36708C10.1708 8.23015 10.723 8.00496 11.0183 8.00953C11.5232 8.01866 11.7358 7.83608 11.916 7.35528C14.0435 1.70746 18.7252 -0.498716 24.0212 0.0931491C28.4977 0.593724 31.4506 3.14528 33.0805 7.39636C33.2592 7.86194 33.4747 8.03844 33.9339 7.98823C34.6618 7.90759 34.9585 8.24688 34.9261 9.01068C34.9143 9.27694 35.149 9.55081 35.2612 9.8262C35.3882 10.1396 35.6023 10.4576 35.6082 10.7756C35.6407 12.7277 35.6229 14.6798 35.6229 16.6319C35.6229 16.708 35.6466 16.7977 35.6156 16.8586C35.2479 17.5828 34.7829 18.2584 34.7563 19.1393C34.7533 19.2473 34.1716 19.4056 33.8542 19.4162C33.429 19.4299 33.1499 19.5106 32.9063 19.9335C31.6705 22.0789 29.828 23.433 27.5425 24.1953C27.2605 24.2896 27.0287 24.5315 26.7585 24.6776C26.5282 24.8039 26.286 24.9545 26.038 24.9819C25.601 25.0321 25.1536 25.0047 24.7107 24.9986C23.8071 24.9865 23.5162 24.7035 23.5221 23.859C23.5281 23.0374 23.8366 22.7164 24.7476 22.7635C25.4385 22.8001 26.1221 22.9705 26.8101 23.0648C26.946 23.0831 27.0966 23.045 27.2309 23.0024C29.1326 22.4014 30.6562 21.274 31.799 19.5121Z" fill="#17AEE7"/>
</svg>
