<svg width="51" height="52" viewBox="0 0 51 52" fill="none" xmlns="http://www.w3.org/2000/svg">
<path d="M7.80002 3.40572C7.80002 2.73915 7.7641 2.19911 7.80783 1.66678C7.89061 0.690072 8.65593 0.0142463 9.62742 0.00344548C10.5583 -0.00581241 11.3439 0.62681 11.472 1.55414C11.5516 2.13276 11.5407 2.72372 11.572 3.3548H26.9627C26.9627 2.91814 26.9502 2.49536 26.9643 2.07258C27.0064 0.801167 27.7718 -0.0196992 28.8838 0.000359514C29.9787 0.0204183 30.669 0.804253 30.7081 2.0695C30.7352 2.95928 31.1949 3.40418 32.0872 3.40418C33.4148 3.40418 34.744 3.38412 36.07 3.41652C37.5007 3.45046 38.4816 4.40711 38.4862 5.81431C38.5034 11.0867 38.494 16.3575 38.4925 21.6299C38.4925 21.778 38.4612 21.9246 38.4409 22.1082H35.4484V16.2279H3.12532V36.6045H20.7355V39.6025C20.4934 39.621 20.2216 39.6581 19.9514 39.6581C14.3021 39.6611 8.65124 39.6642 3.00193 39.6581C0.818424 39.655 0 38.8248 0 36.6585C0 26.5273 0 16.3945 0 6.26332C0 4.26362 0.860595 3.41343 2.90197 3.40726C4.48415 3.40263 6.0679 3.40726 7.80002 3.40726V3.40572Z" fill="white"/>
<path d="M36.9009 51.9995C29.1446 51.9532 22.8768 45.7258 22.9221 38.1096C22.9674 30.3669 29.2649 24.2274 37.1118 24.2737C44.7978 24.32 51.0515 30.5737 51.0016 38.1621C50.9516 45.8893 44.6775 52.0458 36.9025 51.9995H36.9009ZM38.3316 49.2623C44.0856 48.679 47.9996 43.6165 48.1871 39.469C47.1718 39.3826 45.7193 39.7313 45.7255 38.1328C45.7318 36.5404 47.1906 36.8968 48.2027 36.7888C47.8294 31.6152 42.8517 27.2084 38.2894 27.0757C38.2894 27.4306 38.3019 27.7855 38.2863 28.1389C38.2488 28.9644 37.6741 29.543 36.9259 29.5229C36.195 29.5029 35.6811 28.9566 35.6436 28.1419C35.6264 27.7732 35.6405 27.4029 35.6405 27.0279C30.541 27.4291 26.0662 31.9732 25.7257 36.7826C26.7331 36.903 28.1981 36.5311 28.1997 38.1358C28.1997 39.7297 26.7425 39.3702 25.7366 39.4798C26.0677 44.7182 31.2079 49.1111 35.6046 49.1928C35.7139 48.2146 35.3578 46.8213 36.9337 46.7997C38.5784 46.7765 38.216 48.2115 38.33 49.2638L38.3316 49.2623Z" fill="white"/>
<path d="M12 19.1807H15.5501V22.6848H12V19.1807Z" fill="#17AEE7" fill-opacity="0.905882"/>
<path d="M26.4956 19.1371V22.7337C25.3914 22.7337 24.3324 22.7523 23.2766 22.7106C23.1376 22.7044 22.9064 22.3897 22.8986 22.2091C22.858 21.3636 22.858 20.5134 22.8986 19.6663C22.908 19.4842 23.1345 19.1648 23.2719 19.1587C24.3309 19.1155 25.3914 19.1355 26.4956 19.1355V19.1371Z" fill="#17AEE7" fill-opacity="0.905882"/>
<path d="M21.0255 28.1228H17.4629V24.6172H21.0255V28.1228Z" fill="#17AEE7" fill-opacity="0.905882"/>
<path d="M28.3262 22.6781V19.1895H31.8701V22.6781H28.3262Z" fill="#17AEE7" fill-opacity="0.905882"/>
<path d="M21.0603 30.0664V33.5427H17.5039V30.0664H21.0603Z" fill="#17AEE7" fill-opacity="0.905882"/>
<path d="M20.9648 19V22.4902H17.4209V19H20.9648Z" fill="#17AEE7" fill-opacity="0.905882"/>
<path d="M12.0498 24.6074H15.6281C15.6281 25.7122 15.6406 26.8031 15.6078 27.8924C15.6046 27.9896 15.3126 28.1532 15.1501 28.1578C14.1396 28.1825 13.1291 28.1702 12.0498 28.1702V24.6074Z" fill="#17AEE7"/>
<path d="M6.6084 28.1698V24.6426H10.2023C10.2023 25.7149 10.2179 26.7565 10.182 27.798C10.1773 27.926 9.89459 28.1482 9.73528 28.1529C8.72787 28.1853 7.71889 28.1698 6.6084 28.1698Z" fill="#17AEE7" fill-opacity="0.905882"/>
<path d="M10.1597 30.0576V33.537H6.62207V30.0576H10.1597Z" fill="#17AEE7" fill-opacity="0.905882"/>
<path d="M12.0439 33.5412V30.0664H15.5941V33.5412H12.0439Z" fill="#17AEE7" fill-opacity="0.905882"/>
<path d="M22.9033 24.6104H26.4082C26.6081 25.3602 26.5628 25.9713 25.8818 26.4635C25.4898 26.7474 25.1227 27.1069 24.851 27.5034C24.3574 28.2225 23.7077 28.2703 22.9033 28.0975V24.6104Z" fill="#17AEE7" fill-opacity="0.905882"/>
<path d="M40.7384 39.7085C39.7966 39.7332 38.9204 39.7055 38.0035 40.2625C36.5276 41.1605 34.7033 40.0264 34.5112 38.3152C34.4674 37.9264 34.2566 37.4975 33.9926 37.2027C33.3382 36.4729 32.601 35.8172 31.9122 35.1166C31.2718 34.467 31.2281 33.6215 31.7794 33.0537C32.3417 32.4751 33.1898 32.4889 33.863 33.1123C34.3565 33.569 34.8267 34.0489 35.3062 34.5226C35.9387 35.1475 36.4791 35.9252 37.5521 35.8002C37.6224 35.7925 37.7177 35.8218 37.7724 35.8665C39.0531 36.9204 40.5822 36.493 42.0254 36.5593C43.2077 36.6149 43.8059 37.2537 43.6794 38.3878C43.5935 39.1623 43.0999 39.6329 42.3003 39.7055C42.2487 39.7101 42.1956 39.7085 42.1441 39.7085C41.6755 39.7085 41.2069 39.7085 40.7384 39.7085Z" fill="#17AEE7"/>
<path d="M30.4967 30.4625C31.2183 30.4687 31.7665 31.0134 31.7712 31.7278C31.7759 32.4561 31.1636 33.047 30.4342 33.0193C29.7298 32.993 29.18 32.4082 29.1956 31.7046C29.2097 30.9964 29.7782 30.4548 30.4967 30.461V30.4625Z" fill="#17AEE7"/>
<path d="M43.4798 43.2671C44.2014 43.2856 44.7434 43.838 44.7356 44.5508C44.7278 45.2915 44.1264 45.85 43.3752 45.813C42.6708 45.7775 42.1272 45.1865 42.1553 44.4845C42.1835 43.7763 42.7567 43.2486 43.4798 43.2671Z" fill="#17AEE7"/>
<path d="M43.4861 30.4614C44.1983 30.4799 44.7434 31.0431 44.7356 31.7513C44.7278 32.4858 44.1202 33.0428 43.3689 33.0042C42.6567 32.9672 42.1288 32.3855 42.1616 31.6773C42.1944 30.9675 42.7661 30.4429 43.4861 30.4614Z" fill="#17AEE7"/>
<path d="M31.7718 44.578C31.7531 45.2877 31.1861 45.8216 30.4645 45.8093C29.743 45.7969 29.1932 45.2461 29.1963 44.5379C29.1994 43.7895 29.7804 43.2433 30.5426 43.2726C31.2611 43.3004 31.7906 43.8636 31.7718 44.5795V44.578Z" fill="#17AEE7"/>
</svg>
