<svg width="53" height="60" viewBox="0 0 53 60" fill="none" xmlns="http://www.w3.org/2000/svg">
<path d="M36.4323 26.9721C36.048 27.0017 35.7131 27.0289 35.3783 27.0539C34.3715 27.1244 33.5714 27.7129 33.2994 28.6947C33.0949 29.4241 32.9803 30.1786 32.8522 30.9285C32.7061 31.7807 32.4005 31.9443 31.6723 31.4898C31.097 31.1307 30.5554 30.7126 29.9711 30.3695C28.7328 29.6445 27.6248 29.7945 26.6832 30.8853C26.1483 31.5034 25.5392 31.7329 24.7527 31.7239C22.4738 31.6966 20.195 31.7079 17.9161 31.7034C17.1722 31.7034 16.8801 31.9147 16.8374 32.5624C16.8059 33.026 16.97 33.3987 17.4824 33.4737C17.797 33.5191 18.1184 33.5396 18.4375 33.5396C20.2219 33.5464 22.0064 33.5418 23.9032 33.5418C23.7908 33.7759 23.7391 33.9054 23.6717 34.0236C23.184 34.8803 23.1031 35.7529 23.6312 36.6142C24.038 37.2778 24.501 37.905 24.9122 38.5617C25.2358 39.0776 25.1707 39.3184 24.5931 39.498C23.9481 39.698 23.2761 39.8002 22.6176 39.9525C21.9614 40.1047 21.3052 40.2297 20.8849 40.8865C20.7703 41.066 20.3882 41.1296 20.1253 41.141C19.2983 41.1773 18.4667 41.1205 17.6419 41.1864C16.8913 41.2455 16.5857 41.9591 17.0194 42.5908C17.1475 42.7794 17.4284 42.9453 17.6554 42.9658C18.3858 43.0294 19.123 43.0544 19.8556 43.0294C20.3231 43.0135 20.4309 43.1862 20.4197 43.627C20.3927 44.5974 20.395 45.57 20.4197 46.5404C20.4557 47.947 21.1546 48.7424 22.53 49.0128C23.2312 49.1514 23.9324 49.2946 24.6223 49.4764C25.1415 49.6127 25.2314 49.84 24.9459 50.3127C24.4965 51.0603 23.8852 51.7352 23.5728 52.5329C23.2514 53.3509 22.739 53.36 22.0536 53.36C15.217 53.3441 8.37824 53.3509 1.5417 53.3509C0.139338 53.3509 0.0539372 53.31 0.0427002 51.892C0.00674214 47.2039 0.00449476 42.5204 0 37.8345C0 28.3879 0 18.9412 0 9.49229C0 7.92202 0.0719161 7.83112 1.60463 7.82657C3.62053 7.81976 5.63419 7.8493 7.65009 7.83566C8.06585 7.83339 8.2389 7.93792 8.19171 8.37878C8.16474 8.63784 8.18272 8.91736 8.24564 9.17187C8.48611 10.1559 9.12886 10.6649 10.2256 10.6899C11.2976 10.7149 12.3718 10.6785 13.4461 10.6785C17.4959 10.6785 21.5456 10.6876 25.5954 10.6899C25.8584 10.6899 26.1236 10.6944 26.3865 10.6649C27.6046 10.5331 28.2631 9.79453 28.1844 8.55831C28.1485 8.00383 28.2968 7.81976 28.8541 7.8243C31.0566 7.8493 33.259 7.84248 35.4637 7.83566C36.012 7.83566 36.302 8.10836 36.3918 8.63103C36.4278 8.83555 36.4615 9.04462 36.4638 9.25141C36.4683 15.0235 36.466 20.7933 36.4638 26.5654C36.4638 26.679 36.448 26.7903 36.4345 26.9676L36.4323 26.9721ZM24.4807 22.2568C22.2603 22.2568 20.0421 22.2522 17.8217 22.259C17.2104 22.259 16.8329 22.584 16.7992 23.0953C16.7655 23.618 17.1543 24.0156 17.7611 24.077C17.8734 24.0884 17.9858 24.0861 18.1004 24.0861C22.2378 24.0861 26.3775 24.0884 30.5149 24.0815C30.8498 24.0815 31.1959 24.0497 31.5173 23.9566C31.6813 23.9088 31.8814 23.7179 31.9218 23.5566C32.1533 22.6453 31.8476 22.2613 30.915 22.259C28.771 22.2545 26.627 22.259 24.483 22.259L24.4807 22.2568ZM7.8973 24.277C7.21409 23.618 6.57584 22.9726 5.90387 22.3704C5.37798 21.8977 4.79591 22.0136 4.45206 22.6249C4.17563 23.1157 4.42734 23.518 4.74647 23.852C5.51732 24.6588 6.30166 25.4541 7.10847 26.2222C7.74448 26.829 8.06136 26.8312 8.68613 26.2154C10.048 24.8769 11.383 23.5112 12.7247 22.1522C13.0438 21.8295 13.3494 21.4932 13.6439 21.1478C14.0169 20.7115 13.8753 20.3206 13.518 19.9434C13.1742 19.5798 12.8191 19.5139 12.4303 19.8411C12.0842 20.132 11.7403 20.4297 11.4189 20.7478C10.2526 21.9045 9.09515 23.0726 7.89505 24.2747L7.8973 24.277ZM7.87033 43.3953C7.22758 42.6976 6.65674 42.0431 6.0477 41.4273C5.52406 40.9001 5.04987 40.8887 4.61837 41.3159C4.22957 41.7023 4.25654 42.2931 4.72849 42.7794C5.46788 43.5407 6.21626 44.2883 6.97812 45.0246C7.76246 45.7814 8.08608 45.7791 8.87491 44.9996C10.2188 43.668 11.5515 42.3249 12.8842 40.9796C13.1494 40.7115 13.4011 40.4251 13.6371 40.1297C13.9855 39.6866 13.9517 39.3298 13.5517 38.9208C13.1517 38.5117 12.7966 38.4685 12.3696 38.8435C11.9448 39.2162 11.5493 39.6252 11.1515 40.032C10.0952 41.1092 9.04346 42.1954 7.87483 43.3953H7.87033ZM13.8618 30.174C13.8506 29.4014 13.1607 28.9401 12.6168 29.231C12.3067 29.3969 12.0212 29.6355 11.7695 29.8854C10.6031 31.0489 9.4435 32.217 8.30183 33.4055C8.01192 33.7077 7.82089 33.735 7.52648 33.4214C7.01183 32.8669 6.47246 32.3329 5.9196 31.8148C5.53755 31.4557 4.94199 31.4943 4.5914 31.8534C4.27227 32.1806 4.21834 32.7283 4.56218 33.0873C5.46338 34.0304 6.39605 34.9439 7.32422 35.8575C7.722 36.2483 8.14226 36.2052 8.51982 35.8257C10.1874 34.1486 11.8549 32.467 13.5068 30.774C13.6933 30.5831 13.7832 30.299 13.8551 30.1718L13.8618 30.174Z" fill="white"/>
<path d="M46.7053 57.1595C46.4918 57.0414 46.321 56.9618 46.166 56.8573C45.4131 56.3551 44.6782 55.8165 43.9028 55.3529C43.6444 55.1984 43.2758 55.2234 42.9567 55.187C42.8713 55.1779 42.7792 55.2438 42.6893 55.2666C41.4532 55.5847 40.6082 56.2051 40.6037 57.6686C40.6014 58.3208 40.3767 58.9775 40.2037 59.6184C40.161 59.7752 39.9317 59.9865 39.7856 59.9888C38.3945 60.0138 37.0011 59.991 35.61 59.9979C35.1763 59.9979 35.0459 59.7842 34.983 59.3775C34.8324 58.4003 34.6346 57.4322 34.4301 56.4664C34.3897 56.2801 34.2683 56.0347 34.1155 55.9619C33.4885 55.662 32.8547 55.3438 32.1872 55.1893C31.8659 55.1143 31.4254 55.3234 31.1063 55.5165C30.3804 55.9551 29.6927 56.4573 28.9982 56.9482C28.7016 57.1595 28.4543 57.1459 28.1981 56.8868C27.2812 55.9574 26.3575 55.0325 25.4339 54.1076C25.1687 53.8417 25.1237 53.5668 25.335 53.2441C25.8159 52.5169 26.2744 51.7738 26.7688 51.0557C27.1306 50.5307 27.1396 50.0558 26.9486 49.4172C26.5823 48.1924 25.9395 47.5129 24.6248 47.4697C23.9955 47.4493 23.3775 47.197 22.7482 47.088C22.3977 47.0266 22.2516 46.8312 22.2493 46.5107C22.2381 45.1586 22.2358 43.8065 22.2381 42.4544C22.2381 42.0817 22.4134 41.8726 22.7999 41.8022C23.7438 41.6295 24.6787 41.4159 25.6226 41.2409C26.0069 41.1682 26.2766 40.9977 26.425 40.6182C26.6385 40.0706 26.9081 39.5456 27.0902 38.9889C27.1554 38.7934 27.0992 38.4958 26.9891 38.314C26.5059 37.5209 25.9822 36.7528 25.4721 35.9756C25.0271 35.2938 25.0293 35.187 25.5912 34.6144C26.4137 33.7758 27.2587 32.96 28.07 32.1124C28.3622 31.8079 28.6184 31.7783 28.9555 32.0056C29.7533 32.5442 30.5669 33.06 31.3625 33.6009C31.7602 33.8713 32.1288 33.8395 32.5828 33.7167C33.8683 33.3668 34.6661 32.676 34.7133 31.2329C34.7335 30.6126 34.9021 29.9922 35.0527 29.3854C35.0931 29.2195 35.3156 28.9832 35.4594 28.9786C36.9067 28.9355 38.3563 28.915 39.8059 28.9446C39.9654 28.9468 40.2126 29.265 40.2598 29.474C40.4621 30.3626 40.6262 31.2602 40.7655 32.1624C40.8487 32.7055 41.0914 33.0577 41.6173 33.2418C42.078 33.4031 42.505 33.6713 42.9702 33.8054C43.1994 33.8713 43.5298 33.8213 43.7388 33.694C44.5591 33.1918 45.3547 32.6487 46.1457 32.0987C46.5458 31.8215 46.8424 31.7965 47.2132 32.1942C48.0515 33.0941 48.9302 33.9599 49.8202 34.8075C50.182 35.1529 50.2 35.4279 49.9101 35.8301C49.3999 36.5369 48.946 37.2822 48.4605 38.0094C48.1639 38.4548 48.1302 38.9002 48.3167 39.4116C48.9415 41.1227 48.928 41.1295 50.7147 41.4795C51.3237 41.5999 51.9327 41.7181 52.544 41.8226C52.8452 41.8749 52.998 41.9931 52.9913 42.3408C52.971 43.7292 52.971 45.1177 52.98 46.5062C52.9823 46.938 52.7845 47.1016 52.3867 47.1698C51.4406 47.3311 50.4944 47.4993 49.564 47.7311C49.2988 47.797 49.0044 48.0447 48.8718 48.2901C48.5931 48.8014 48.3774 49.3582 48.2043 49.9195C48.1392 50.1353 48.1953 50.4512 48.3145 50.6489C48.8314 51.5102 49.3775 52.3555 49.9461 53.185C50.1933 53.544 50.2068 53.7963 49.8741 54.1144C48.9617 54.9939 48.0807 55.9074 47.1795 56.8005C47.0379 56.9414 46.8582 57.0414 46.6986 57.1573L46.7053 57.1595ZM31.2546 44.4701C31.2433 48.056 34.0593 50.8989 37.6394 50.9148C41.1318 50.9307 44.0265 48.0765 44.0422 44.5996C44.0579 40.8955 41.3318 38.0753 37.7158 38.0549C34.093 38.0344 31.2681 40.8409 31.2546 44.4701Z" fill="#DFBB00"/>
<path d="M18.1478 8.85777C15.6442 8.85777 13.1384 8.84414 10.6348 8.86913C10.1224 8.87368 9.98755 8.70324 10.0078 8.20784C10.046 7.31476 10.0303 6.41941 10.0235 5.52406C10.0168 4.68325 10.01 4.68325 10.8168 4.6787C11.9091 4.67416 13.0013 4.68552 14.0935 4.66052C14.8621 4.64461 14.9835 4.53553 14.9902 3.75153C14.9992 2.72665 15.1857 1.78358 15.9274 1.02684C16.8803 0.0542263 18.0354 -0.257102 19.2895 0.208754C20.4806 0.651886 21.2357 1.54269 21.3436 2.89027C21.3548 3.04252 21.3705 3.19478 21.3728 3.34476C21.3953 4.61053 21.4447 4.66961 22.6763 4.68097C23.6921 4.69234 24.7102 4.69006 25.726 4.67416C26.1957 4.66507 26.3912 4.81278 26.3665 5.33544C26.3193 6.28534 26.3283 7.23977 26.3575 8.18966C26.3732 8.68506 26.2181 8.8555 25.7147 8.85095C23.1909 8.8305 20.6694 8.84186 18.1455 8.84186C18.1455 8.84641 18.1455 8.85095 18.1455 8.8555L18.1478 8.85777ZM19.6446 3.3084C19.6243 2.28125 19.085 1.73813 18.1073 1.7654C17.2915 1.78812 16.669 2.43123 16.696 3.22432C16.7252 4.11286 17.3477 4.71733 18.2175 4.7037C19.1142 4.69006 19.6603 4.15376 19.6446 3.30613V3.3084Z" fill="white"/>
</svg>
