<svg width="46" height="49" viewBox="0 0 46 49" fill="none" xmlns="http://www.w3.org/2000/svg">
<path d="M25.8791 23.7607C28.359 24.1067 30.5805 25.0223 32.5265 26.6783C32.1025 27.0019 31.7605 27.3783 31.5164 27.7843C31.1002 27.7619 30.7176 27.7126 30.3378 27.7264C29.4169 27.7597 28.6117 28.1107 27.9471 28.7542C27.3011 29.3795 26.6629 30.0158 26.0518 30.6759C25.1681 31.6305 24.8504 32.7705 25.071 34.0625C25.0831 34.1327 25.0924 34.2029 25.1053 34.2847C25.0503 34.3245 24.9939 34.3657 24.9375 34.4063C23.8546 35.1858 23.2785 36.2469 23.2507 37.5953C23.2335 38.4291 23.245 39.2644 23.2478 40.0982C23.2514 40.8907 23.477 41.6152 23.9131 42.2732C23.9467 42.3238 23.9795 42.3752 24.0352 42.4606C23.7639 42.4657 23.5255 42.4737 23.2871 42.4744C21.0456 42.4852 18.8034 42.5142 16.5619 42.5012C13.9913 42.486 11.4207 42.4368 8.85011 42.3962C7.95708 42.3817 7.06333 42.355 6.17102 42.3217C5.18518 42.2848 4.22505 42.1125 3.31203 41.7166C1.64233 40.9921 0.621518 39.7153 0.200344 37.9362C-0.0159532 37.0228 -0.0402242 36.0963 0.0475797 35.1648C0.197489 33.5696 0.587967 32.038 1.25471 30.5847C2.53821 27.7879 4.62409 25.8467 7.4274 24.6814C8.43893 24.2609 9.48901 23.9786 10.5634 23.7846C10.6176 23.7752 10.6719 23.7694 10.7268 23.7644C10.7497 23.7622 10.7725 23.7673 10.8096 23.7694C10.8346 23.8201 10.8646 23.8751 10.8896 23.9316C11.7184 25.8207 13.1582 26.9418 15.1284 27.3949C16.0343 27.6034 16.9545 27.6924 17.8811 27.6895C18.6249 27.6873 19.3709 27.6801 20.1126 27.628C21.1427 27.5556 22.1421 27.3327 23.0779 26.868C24.2729 26.2745 25.1253 25.3437 25.7013 24.1393C25.7556 24.0257 25.8084 23.9106 25.8784 23.7615L25.8791 23.7607Z" fill="white"/>
<path d="M43.2469 42.9316C43.454 43.1357 43.676 43.3485 43.8908 43.5685C44.3627 44.0498 44.3663 44.6998 43.8966 45.1804C43.3447 45.7449 42.7908 46.3066 42.234 46.8661C41.7607 47.3416 41.1189 47.3402 40.6435 46.8675C40.4265 46.6518 40.2124 46.4318 40.0146 46.2313C39.4343 46.4767 38.8796 46.7105 38.2949 46.9573C38.2949 47.2345 38.3078 47.5436 38.2899 47.8512C38.28 48.0299 38.2507 48.2196 38.1772 48.3795C37.9951 48.7718 37.6675 48.9846 37.2413 48.9911C36.4104 49.0042 35.5794 49.0034 34.7485 48.9919C34.1639 48.9839 33.7134 48.5171 33.6949 47.925C33.687 47.6709 33.6934 47.4162 33.6927 47.1621C33.6927 47.084 33.6927 47.0058 33.6927 46.9558C33.1102 46.7105 32.5563 46.4767 31.9731 46.2306C31.7768 46.4289 31.5605 46.6461 31.347 46.8654C31.1828 47.0333 30.9929 47.1491 30.7609 47.1954C30.404 47.2663 30.0813 47.1853 29.8251 46.9327C29.2183 46.3348 28.6172 45.7297 28.0297 45.1123C27.6335 44.6954 27.65 44.0447 28.0462 43.6221C28.2724 43.3803 28.5123 43.1516 28.7386 42.9243C28.5044 42.3467 28.2767 41.7836 28.0376 41.193C28.0033 41.1908 27.9348 41.1836 27.8663 41.1836C27.5921 41.1821 27.3173 41.1872 27.0432 41.1821C26.5142 41.172 26.0852 40.787 26.011 40.2557C25.9953 40.1464 25.9895 40.0342 25.9895 39.9235C25.9874 39.2084 25.9853 38.4933 25.991 37.7782C25.9924 37.6204 25.9988 37.4553 26.0452 37.3077C26.1823 36.8669 26.4842 36.594 26.9418 36.5448C27.2288 36.5137 27.5208 36.5282 27.8106 36.5231C27.9034 36.5216 27.9962 36.5231 28.0676 36.5231C28.306 35.9491 28.533 35.4027 28.7743 34.8207C28.5723 34.621 28.356 34.3915 28.1232 34.1802C27.6157 33.7199 27.6435 32.9468 28.1232 32.493C28.6729 31.9726 29.2033 31.4298 29.7201 30.8761C30.1677 30.3955 30.913 30.3571 31.3827 30.8855C31.5919 31.1207 31.8167 31.3422 32.023 31.5579C32.5863 31.3219 33.1195 31.0983 33.6777 30.8638C33.6806 30.8334 33.6913 30.7726 33.692 30.711C33.6942 30.4172 33.692 30.1233 33.6934 29.8287C33.6977 29.1361 34.2652 28.7141 34.7821 28.7228C35.5894 28.7365 36.3968 28.7228 37.2042 28.7271C37.8274 28.7308 38.2835 29.1933 38.2935 29.8273C38.2992 30.1762 38.2942 30.5243 38.2942 30.8573C38.8475 31.0889 39.3807 31.3118 39.9382 31.5449C39.9639 31.5224 40.0132 31.4855 40.0567 31.4428C40.263 31.2358 40.4643 31.0244 40.6735 30.8203C41.1239 30.381 41.7664 30.381 42.2126 30.8269C42.7872 31.4015 43.3583 31.9799 43.9251 32.5632C44.3534 33.0047 44.3541 33.6598 43.9294 34.1071C43.691 34.3582 43.4404 34.5985 43.2148 34.8236C43.454 35.399 43.681 35.9462 43.9201 36.5216C44.0914 36.5216 44.2863 36.5188 44.4805 36.5224C44.6761 36.526 44.8731 36.5209 45.0673 36.5441C45.5377 36.6013 45.9003 36.9668 45.9739 37.4423C45.9896 37.5436 45.9974 37.6479 45.9981 37.7506C46.0003 38.4896 46.0017 39.2286 45.9967 39.9676C45.9953 40.1167 45.9817 40.2716 45.9417 40.4149C45.8154 40.8658 45.4106 41.1735 44.9459 41.1807C44.6097 41.1858 44.2735 41.1814 43.9529 41.1814C43.7181 41.7626 43.4911 42.3257 43.2469 42.9308V42.9316ZM31.9823 38.9116C31.9895 41.1677 33.787 42.9815 36.012 42.9772C38.2164 42.9728 40.0103 41.1416 40.0068 38.9C40.0032 36.636 38.1993 34.828 35.9542 34.8367C33.7663 34.8453 31.9759 36.6816 31.9831 38.9116H31.9823Z" fill="#17AEE7"/>
<path d="M15.8284 24.0564C16.1239 24.0564 16.4187 24.0564 16.7143 24.0564C18.1712 24.055 19.3912 23.0786 19.686 21.6339C19.8302 20.9289 19.8281 20.2095 19.6196 19.511C19.242 18.2473 18.0856 17.3787 16.7842 17.3722C15.8362 17.3672 14.8875 17.365 13.9395 17.3758C13.6918 17.3787 13.4448 17.4395 13.1964 17.4692C13.105 17.4801 13.0079 17.4967 12.9208 17.4765C12.3712 17.352 11.8237 17.2173 11.2618 17.0834C11.2561 17.0205 11.244 16.9589 11.2447 16.8974C11.2561 16.1273 11.2783 15.3572 11.2776 14.5864C11.2776 14.1666 11.234 13.7468 11.219 13.327C11.2055 12.9383 11.2105 12.5489 11.194 12.1602C11.1833 11.9069 11.1783 11.6485 11.1205 11.4038C11.0505 11.1049 10.9492 10.8096 10.8235 10.5302C10.6058 10.0446 10.5815 9.56903 10.805 9.08264C11.9643 6.56312 13.8881 4.96933 16.5451 4.33601C20.7618 3.33139 24.421 5.83933 25.8444 9.0023C26.0936 9.55527 26.1143 10.0793 25.8323 10.6221C25.6174 11.0362 25.5289 11.4878 25.5104 11.9532C25.5075 12.0328 25.5068 12.1117 25.5068 12.1913C25.5068 14.2411 25.5025 16.2909 25.5111 18.3407C25.5125 18.6635 25.5639 18.9885 25.616 19.3084C25.6353 19.4278 25.626 19.5219 25.5753 19.6254C25.2141 20.3637 24.7501 21.0296 24.2033 21.6375C23.5351 22.3816 22.7827 23.0279 21.9704 23.6005C20.7847 24.4357 19.469 24.8266 18.0235 24.7231C17.2497 24.6681 16.5151 24.4589 15.8212 24.1064C15.8227 24.0897 15.8248 24.0731 15.8262 24.0572L15.8284 24.0564Z" fill="white"/>
<path d="M28.5873 10.6666C28.0369 6.37525 24.1307 2.10994 18.8353 1.90149C13.2616 1.68146 8.84854 5.71877 8.07829 10.655C8.12398 10.6717 8.17109 10.6934 8.22106 10.7064C8.85568 10.8707 9.27043 11.3955 9.27043 12.057C9.27185 14.2342 9.26971 16.4113 9.26829 18.5892C9.26829 18.7955 9.35752 18.9135 9.5781 18.9671C10.1335 19.1039 10.6896 19.2363 11.2464 19.3695C11.8946 19.5237 12.5427 19.6742 13.1902 19.8313C13.2873 19.8552 13.3629 19.8653 13.4472 19.7864C13.6035 19.6395 13.802 19.5888 14.0118 19.5888C14.9056 19.5874 15.7993 19.5837 16.6931 19.5902C17.2299 19.5939 17.5554 19.9326 17.559 20.4725C17.5604 20.6477 17.5611 20.8221 17.559 20.9973C17.5511 21.4822 17.2263 21.8224 16.7438 21.8268C15.9678 21.8347 15.1918 21.8297 14.4159 21.8297C14.2667 21.8297 14.1182 21.8297 13.969 21.8289C13.6406 21.8268 13.3958 21.674 13.2466 21.3831C13.1931 21.2781 13.1252 21.2296 13.0196 21.2065C11.3577 20.8431 9.72015 20.3864 8.084 19.921C7.97264 19.8892 7.85271 19.8776 7.73707 19.8769C7.25094 19.8718 6.7648 19.8595 6.27938 19.8783C5.51984 19.9073 4.85239 19.287 4.85596 18.4365C4.86595 16.339 4.86809 14.2407 4.85453 12.1431C4.84953 11.3897 5.33995 10.7831 6.03596 10.6804C6.07451 10.6746 6.11163 10.6652 6.17587 10.6521C6.21799 10.4748 6.26796 10.2924 6.30365 10.1078C6.7748 7.67373 7.83915 5.55085 9.55454 3.77611C11.1386 2.13672 13.046 1.05538 15.2261 0.460418C16.3361 0.154978 17.4683 -0.00425624 18.6176 8.65114e-05C20.2623 0.00660064 21.84 0.361983 23.3255 1.07492C26.6135 2.65351 28.8828 5.17013 30.0279 8.68704C30.2035 9.22626 30.2763 9.80023 30.3955 10.3583C30.4155 10.4509 30.4319 10.5436 30.4512 10.6406C30.5654 10.6601 30.6732 10.6731 30.7788 10.697C31.3778 10.8331 31.8053 11.3434 31.8446 11.9629C31.8468 11.9948 31.846 12.0266 31.846 12.0585C31.846 14.1958 31.846 16.3339 31.846 18.4713C31.846 18.7919 31.7582 19.0843 31.5619 19.3362C31.2999 19.672 30.9587 19.8653 30.5311 19.8696C29.9358 19.8754 29.3397 19.8812 28.7436 19.8689C28.0355 19.8544 27.4708 19.2812 27.4351 18.5625C27.433 18.5147 27.433 18.4669 27.433 18.4191C27.433 16.3216 27.4337 14.2233 27.4316 12.1258C27.4316 11.8746 27.4701 11.635 27.5851 11.4121C27.7657 11.0632 28.0483 10.8389 28.416 10.7202C28.446 10.7108 28.4774 10.7079 28.5073 10.6992C28.5295 10.6927 28.5502 10.6818 28.5866 10.6659L28.5873 10.6666Z" fill="white"/>
</svg>
