<svg width="61" height="61" viewBox="0 0 61 61" fill="none" xmlns="http://www.w3.org/2000/svg">
<g clip-path="url(#clip0_267_164)">
<path d="M22.782 27.8317C27.0489 27.8317 31.3122 27.8063 35.5791 27.8389C38.4418 27.8606 40.9218 28.875 42.9469 30.9398C43.0624 31.0557 43.1635 31.1898 43.2826 31.3021C43.5426 31.5448 43.4992 31.7259 43.2429 31.9614C41.2322 33.8052 39.2251 35.6527 37.2325 37.5111C34.1749 40.362 31.1317 43.2311 28.0778 46.0857C26.8829 47.2014 25.6736 48.299 24.4859 49.4184C24.1935 49.6973 23.8831 49.8096 23.4824 49.8096C15.8041 49.8024 8.12587 49.8024 0.451237 49.8096C0.115517 49.8096 0.0216594 49.7154 0.0216594 49.3749C0.0216594 46.0458 0 42.7094 0 39.3767C0 37.4857 0.184105 35.6129 1.00355 33.8886C2.58107 30.5739 5.17298 28.5453 8.82619 27.9947C9.72506 27.8606 10.6456 27.8425 11.5553 27.8389C15.2951 27.8208 19.0386 27.8317 22.7784 27.8317H22.782Z" fill="white"/>
<path d="M23.9587 60.9998C24.2258 59.9167 24.4677 58.8843 24.7312 57.8591C25.2546 55.7979 25.7781 53.7366 26.3304 51.6827C26.4134 51.3675 26.5939 51.0342 26.8286 50.8132C30.5179 47.3429 34.2216 43.8906 37.9218 40.4347C42.3006 36.3448 46.6866 32.2622 51.0546 28.1579C52.0653 27.2088 53.1772 26.5169 54.5742 26.3466C57.5812 25.9771 60.2995 27.926 60.8735 30.911C61.267 32.9505 60.7038 34.74 59.1985 36.1564C55.5886 39.558 51.9426 42.9197 48.3146 46.3032C45.0694 49.328 41.8277 52.3564 38.586 55.3777C37.337 56.5405 36.0482 57.6671 34.8425 58.8734C34.2505 59.4639 33.5502 59.5617 32.8138 59.674C29.9475 60.1051 27.0812 60.5434 24.215 60.9781C24.1572 60.9853 24.0995 60.989 23.9551 60.9998H23.9587Z" fill="#17AEE7"/>
<path d="M12.2734 11.4366C12.3276 4.93413 17.6089 -0.090335 23.8829 0.00022857C30.5395 0.0980372 35.1421 5.51736 35.1818 11.567C35.2215 17.8666 29.7814 23.0432 23.5868 22.9563C17.3778 22.8693 12.3456 17.7543 12.277 11.433L12.2734 11.4366Z" fill="white"/>
</g>
<defs>
<clipPath id="clip0_267_164">
<rect width="61" height="61" fill="white"/>
</clipPath>
</defs>
</svg>
