<svg width="63" height="60" viewBox="0 0 63 60" fill="none" xmlns="http://www.w3.org/2000/svg">
<g clip-path="url(#clip0_267_138)">
<path d="M21.0497 49.1181C21.497 48.493 21.9037 47.9337 22.3023 47.3621C23.3312 45.8816 24.3561 44.4012 25.3809 42.9166C26.4383 41.3827 28 40.8234 29.887 41.4649C31.8676 42.1393 33.8034 42.933 35.7596 43.6774C37.1138 44.1955 38.5128 44.6068 39.7044 45.4868C41.2539 46.626 42.112 48.1229 42.108 50.0845C42.108 51.639 42.1527 53.1935 42.108 54.7439C42.047 56.8782 41.319 58.663 39.2652 59.5965C38.7406 59.835 38.1306 59.979 37.5571 59.979C26.5847 59.9995 15.6123 59.9995 4.63983 59.9872C2.05736 59.9872 0.133729 57.9557 0.0564579 55.1304C0.00358849 53.2552 -0.0289465 51.3717 0.0564579 49.4964C0.137795 47.6294 1.18298 46.2435 2.71213 45.3223C3.77358 44.6849 4.95298 44.2243 6.11204 43.772C8.21868 42.9536 10.3457 42.1969 12.4686 41.4238C12.7207 41.3333 13.0013 41.3169 13.2494 41.2223C14.3597 40.8069 15.2625 41.214 15.9742 42.0324C16.6534 42.8097 17.2309 43.6774 17.8328 44.5204C18.8942 46.0173 19.9394 47.5225 21.0537 49.114L21.0497 49.1181Z" fill="white"/>
<path d="M33.6212 29.0009C33.8123 27.9646 33.9913 26.9694 34.1824 25.933C34.2719 25.9207 34.3817 25.8919 34.4956 25.8919C37.0292 25.8919 39.5588 25.8919 42.0925 25.896C43.219 25.896 43.8494 26.5334 43.8494 27.6685C43.8494 29.7329 43.8412 31.8014 43.8372 33.8659C43.8372 34.0468 43.8534 34.2236 43.8697 34.5485C44.1341 34.3018 44.3008 34.1496 44.4635 33.9892C46.9483 31.5053 49.4332 29.0215 51.9059 26.5252C52.341 26.0852 52.825 25.8755 53.4391 25.8837C54.8381 25.896 56.2411 25.8837 57.6402 25.8672C58.9212 25.8508 59.8851 24.8844 59.8891 23.589C59.9013 18.5883 59.8891 13.5835 59.9013 8.5828C59.9013 8.25381 59.8037 8.12221 59.4702 8.13455C58.9294 8.15511 58.3885 8.13455 57.8516 8.13455C47.5055 8.13455 37.1594 8.13455 26.8132 8.13043C26.6465 8.13043 26.4797 8.13043 26.2601 8.13043V11.4327C25.4752 11.2723 24.7594 11.1243 24.0396 10.9844C23.1164 10.8035 23.1205 10.8076 23.1246 9.86176C23.1286 8.34428 23.1205 6.82269 23.1327 5.30521C23.153 2.67738 25.2597 0.333311 27.8462 0.0701171C28.3993 0.0125434 28.9565 -0.00390625 29.5136 -0.00390625C38.8308 -0.00390625 48.1481 -0.00390625 57.4653 -0.00390625C60.6334 -0.00390625 63.0166 2.40185 63.0166 5.59308C63.0166 11.6013 63.0166 17.6136 63.0166 23.6219C63.0166 26.5663 60.5683 29.0338 57.6524 29.0338C56.5706 29.0338 55.4928 29.0544 54.4111 29.0256C54.0166 29.0132 53.7441 29.1489 53.4797 29.4162C51.9831 30.9214 50.4743 32.4142 48.9736 33.9111C47.1476 35.7329 45.3297 37.5629 43.4874 39.3683C42.6171 40.2195 41.4418 40.0797 40.9334 39.0804C40.787 38.7925 40.7463 38.4265 40.7463 38.0934C40.7341 35.3093 40.7463 32.5293 40.7463 29.7452C40.7463 29.0379 40.7463 29.0379 40.0753 29.0379C38.0825 29.0379 36.0938 29.0379 34.1011 29.0379C33.9709 29.0379 33.8408 29.0173 33.6415 28.9968L33.6212 29.0009ZM35.7319 2.19623C34.6867 2.17567 33.8937 3.00637 33.8855 4.12906C33.8774 5.12838 34.6379 5.95908 35.5855 5.98787C36.6103 6.01666 37.4684 5.16128 37.4888 4.08794C37.5091 3.01871 36.7608 2.21679 35.7278 2.20034L35.7319 2.19623ZM41.332 4.14551C41.332 5.1366 42.1738 5.96319 43.1946 5.97964C44.1056 5.99609 45.0206 5.1037 45.0166 4.2072C45.0166 3.16265 44.1788 2.27025 43.1946 2.25792C42.1942 2.24558 41.3279 3.12563 41.3279 4.14551H41.332ZM29.904 4.18664C29.9122 3.20377 29.0541 2.28259 28.1106 2.26203C27.0938 2.23735 26.2276 3.08862 26.2235 4.11672C26.2195 5.09548 27.0979 5.99198 28.0577 5.98376C29.0256 5.97553 29.8959 5.13249 29.904 4.19075V4.18664Z" fill="#17AEE7"/>
<path d="M31.1685 23.552C31.0505 27.3765 30.2128 30.7569 28.3257 33.8001C27.3619 35.3546 26.1337 36.7199 24.4703 37.5547C21.5666 39.0105 17.9023 38.5335 15.328 35.7453C13.0221 33.249 11.9199 30.2264 11.2814 26.9817C10.9439 25.2545 10.8097 23.4944 11.0984 21.7425C11.5539 18.9954 13.0099 16.9516 15.5232 15.7837C19.3379 14.0112 23.1771 14.0071 26.9186 15.9646C30.0257 17.589 31.2173 20.3731 31.1685 23.552Z" fill="white"/>
</g>
<defs>
<clipPath id="clip0_267_138">
<rect width="63" height="60" fill="white"/>
</clipPath>
</defs>
</svg>
