<svg width="52" height="76" viewBox="0 0 52 76" fill="none" xmlns="http://www.w3.org/2000/svg">
<g clip-path="url(#clip0_267_142)">
<path d="M51.9978 50.2781C51.9978 51.188 52.0025 52.0956 51.9978 53.0056C51.9861 54.5847 50.8132 55.7447 49.2236 55.7563C48.252 55.7609 47.2828 55.7655 46.3113 55.7563C46.0655 55.7539 45.9672 55.8327 45.8735 56.0665C45.328 57.4187 44.7638 58.7639 44.1833 60.1022C44.0966 60.3013 44.099 60.4102 44.2558 60.563C44.923 61.2067 45.5785 61.8596 46.234 62.5149C47.4889 63.7698 47.4889 65.3813 46.234 66.6316C44.9745 67.8842 43.7104 69.1322 42.4438 70.3779C41.2967 71.5055 39.5947 71.4939 38.4523 70.357C37.7781 69.6856 37.0968 69.0188 36.4249 68.3427C36.2681 68.1829 36.1463 68.1667 35.9263 68.2616C34.6106 68.8243 33.2902 69.3776 31.9558 69.8916C31.6398 70.012 31.5531 70.1487 31.5578 70.4612C31.5719 71.4476 31.6023 72.4363 31.5368 73.418C31.4361 74.9438 30.3241 75.9695 28.7837 75.988C26.9202 76.0112 25.0543 76.0112 23.1908 75.988C21.6972 75.9695 20.5735 74.9322 20.4775 73.4596C20.412 72.4386 20.4401 71.4129 20.4494 70.3895C20.4518 70.1116 20.3605 70.0167 20.0959 69.9125C18.7615 69.3938 17.4388 68.8474 16.1231 68.2848C15.882 68.1829 15.7485 68.1736 15.5613 68.3658C14.8964 69.0465 14.2151 69.7134 13.5339 70.3802C12.3985 71.4939 10.7129 71.5055 9.57044 70.3871C8.27114 69.1183 6.98589 67.8402 5.69829 66.5575C4.54648 65.4091 4.53946 63.7675 5.68425 62.6052C6.36082 61.9175 7.05144 61.2437 7.74674 60.5722C7.89891 60.4264 7.94105 60.3176 7.82867 60.1161C7.1123 58.8357 6.55747 57.4859 6.13842 56.0827C6.05882 55.8141 5.9324 55.7539 5.67488 55.7586C4.71738 55.7725 3.75988 55.7655 2.80238 55.7632C1.23152 55.7586 0.0305473 54.6125 0.0141597 53.0658C-0.0045689 51.2089 -0.00222782 49.3519 0.0141597 47.4973C0.0305473 45.9529 1.20811 44.8207 2.80472 44.7929C3.76222 44.7767 4.71972 44.7744 5.67722 44.7929C5.96986 44.7999 6.07053 44.6911 6.1548 44.4317C6.38423 43.7255 6.63473 43.0263 6.90629 42.334C7.16849 41.6718 7.77483 41.3916 8.36478 41.6209C8.9641 41.8547 9.16777 42.4776 8.9243 43.1652C8.58718 44.1168 8.27348 45.08 7.97382 46.0456C7.78888 46.6452 7.43303 46.9486 6.79626 46.9509C5.51569 46.9555 4.23278 46.9509 2.95221 46.9555C2.36226 46.9555 2.19838 47.1245 2.19838 47.7173C2.19838 49.4191 2.19604 51.1232 2.19838 52.825C2.19838 53.4501 2.3646 53.6145 3.0084 53.6145C4.25151 53.6169 5.49462 53.6145 6.73539 53.6145C7.45176 53.6145 7.80995 53.8878 7.98084 54.5731C8.44672 56.4509 9.18416 58.2175 10.2025 59.8684C10.549 60.431 10.4811 60.9219 10.0059 61.3942C9.10924 62.281 8.21027 63.1655 7.31598 64.0569C6.91097 64.4598 6.91097 64.6959 7.31598 65.0965C8.55909 66.3306 9.80454 67.5601 11.05 68.7895C11.4175 69.153 11.6704 69.153 12.0403 68.7895C12.9392 67.9051 13.8359 67.0159 14.7349 66.1315C15.2686 65.6082 15.7228 65.5596 16.3713 65.9486C18.0217 66.9349 19.7869 67.6504 21.6574 68.1088C22.348 68.2778 22.629 68.6251 22.629 69.336C22.6313 70.5654 22.629 71.7949 22.6313 73.022C22.6313 73.6634 22.7952 73.8278 23.4249 73.8278C25.1456 73.8278 26.8687 73.8278 28.5893 73.8278C29.191 73.8278 29.3666 73.6495 29.3666 73.0429C29.3666 71.8134 29.3666 70.5839 29.3666 69.3568C29.3666 68.6159 29.6288 68.2801 30.3569 68.1019C32.2414 67.6388 34.016 66.9187 35.6758 65.9185C36.2704 65.5596 36.7457 65.6198 37.249 66.1153C38.1386 66.9928 39.0235 67.8726 39.9085 68.7525C40.3205 69.1623 40.5686 69.1646 40.9877 68.7525C42.2238 67.5323 43.4599 66.3098 44.696 65.0872C45.0752 64.7121 45.0799 64.4528 44.7006 64.0731C43.8157 63.1909 42.9261 62.318 42.0388 61.4382C41.498 60.9034 41.4372 60.4611 41.8281 59.8244C42.8254 58.1897 43.5535 56.4486 44.0147 54.5963C44.195 53.8762 44.5321 53.6192 45.2836 53.6169C46.5267 53.6169 47.7698 53.6169 49.0106 53.6169C49.6286 53.6169 49.8018 53.4478 49.8018 52.8481C49.8018 51.1325 49.8018 49.4168 49.8018 47.7011C49.8018 47.1292 49.6263 46.9555 49.0293 46.9555C47.8119 46.9532 46.5946 46.9555 45.3795 46.9555C44.5321 46.9555 44.2301 46.7078 43.996 45.9136C43.7478 45.0662 43.4669 44.228 43.1719 43.3968C42.9355 42.7323 43.1438 42.114 43.7267 41.8779C44.3144 41.6394 44.9371 41.9196 45.1923 42.5725C45.431 43.1814 45.6558 43.795 45.8407 44.4202C45.932 44.7327 46.0866 44.8022 46.3885 44.7976C47.2805 44.779 48.1748 44.7906 49.0691 44.7906C50.8249 44.7906 51.9931 45.9414 51.9978 47.6756C51.9978 48.5462 51.9978 49.4168 51.9978 50.2873V50.2781Z" fill="white"/>
<path d="M30.5041 39.4536C30.4269 38.2612 30.6235 36.9368 31.2743 35.6935C31.7402 34.8043 32.384 34.0681 33.1495 33.4197C36.3943 30.6691 37.813 27.1729 37.1364 23.0098C36.4411 18.7333 33.9057 15.7789 29.8065 14.2623C23.3311 11.8659 16.0199 16.0729 14.8938 22.8315C14.1962 27.0154 15.5189 30.544 18.7519 33.3248C20.5756 34.8923 21.5636 36.7909 21.505 39.1989C21.491 39.75 21.505 40.3011 21.5003 40.8498C21.4957 41.5352 21.0555 41.9936 20.4164 41.9913C19.7843 41.989 19.3419 41.5213 19.3348 40.8382C19.3302 40.2617 19.3302 39.6852 19.3348 39.111C19.3489 37.4531 18.6793 36.1195 17.4105 35.0521C14.1938 32.3477 12.5504 28.8955 12.5247 24.7255C12.4872 18.7101 16.8252 13.2713 22.7388 11.8497C29.9516 10.1131 37.1715 14.2415 39.0022 21.3404C40.3928 26.7329 38.8407 31.3591 34.5963 35.0382C33.3228 36.1403 32.6486 37.4601 32.6649 39.1295C32.6696 39.6805 32.6673 40.2316 32.6649 40.7803C32.6603 41.5259 32.2272 42.0029 31.567 41.9936C30.9115 41.9843 30.5018 41.5282 30.4994 40.7965C30.4994 40.4122 30.4994 40.0278 30.4994 39.4583L30.5041 39.4536Z" fill="white"/>
<path d="M25.9951 60.9619C31.5388 60.9156 36.1367 56.7826 36.6728 51.3253C36.9209 48.7946 36.2795 46.4838 34.8725 44.3653C34.4019 43.6568 34.718 42.8209 35.5116 42.6449C35.9658 42.5454 36.3965 42.7329 36.7009 43.1821C37.8199 44.8376 38.555 46.6459 38.7844 48.6233C39.3112 53.173 37.8948 57.0535 34.3551 60.0126C30.5345 63.2078 26.1215 63.9904 21.4511 62.233C16.6776 60.4386 13.9152 56.8753 13.2082 51.8601C12.768 48.7344 13.5406 45.8402 15.2894 43.2006C15.6897 42.5963 16.3148 42.4203 16.8556 42.7399C17.4104 43.0687 17.5392 43.7517 17.1388 44.3491C16.2539 45.6688 15.6686 47.102 15.4111 48.6672C14.456 54.4765 18.6231 60.0381 24.5249 60.8184C25.0119 60.8832 25.5035 60.911 25.9904 60.955L25.9951 60.9619Z" fill="white"/>
<path d="M24.9836 25.9549C26.0464 24.8922 27.0835 23.8572 28.1206 22.8222C28.6029 22.3406 29.0851 21.859 29.5744 21.3844C30.0824 20.8935 30.7496 20.8681 31.1991 21.308C31.6463 21.7479 31.6182 22.4194 31.1219 22.9125C29.359 24.6606 27.5939 26.4064 25.824 28.1476C25.2785 28.6871 24.6605 28.6894 24.1197 28.1592C23.1294 27.1867 22.1415 26.2096 21.1559 25.2279C20.6783 24.7509 20.6502 24.0887 21.0786 23.6488C21.5211 23.195 22.2024 23.2066 22.7057 23.6974C23.4501 24.4245 24.1852 25.1631 24.9812 25.9503L24.9836 25.9549Z" fill="#DFBB00"/>
<path d="M26.005 47.9217C24.4131 47.9217 22.8212 47.9217 21.2292 47.9217C20.4824 47.9217 19.9791 47.4888 19.9815 46.852C19.9815 46.2061 20.4778 45.7754 21.2292 45.7754C24.4389 45.7754 27.6508 45.7754 30.8604 45.7754C31.4621 45.7754 31.8765 46.0926 31.9959 46.6228C32.1082 47.1183 31.8648 47.63 31.3872 47.8222C31.2022 47.8963 30.9845 47.9171 30.7832 47.9194C29.1913 47.9264 27.5993 47.9241 26.0074 47.9241L26.005 47.9217Z" fill="#DFBB00"/>
<path d="M42.5117 16.4597C42.006 16.4111 41.5893 16.0985 41.4629 15.6378C41.3294 15.1608 41.5097 14.6862 41.9639 14.4176C42.6849 13.9915 43.4177 13.584 44.1458 13.1696C44.8294 12.7806 45.5036 12.3777 46.1942 12.0026C46.6999 11.7294 47.2219 11.8243 47.5708 12.2156C47.8868 12.5699 47.943 13.1001 47.6667 13.4961C47.5544 13.6581 47.3905 13.804 47.2173 13.9036C45.8688 14.6862 44.5133 15.4595 43.1555 16.2259C42.9588 16.337 42.7271 16.3856 42.514 16.4621L42.5117 16.4597Z" fill="#DFBB00"/>
<path d="M9.45995 16.4558C9.27032 16.3863 9.0643 16.34 8.89106 16.2404C7.52153 15.4694 6.15435 14.6915 4.79184 13.9065C4.17848 13.5523 3.99821 12.9179 4.32362 12.3691C4.63733 11.8412 5.27644 11.6977 5.88278 12.0403C7.26402 12.8206 8.64057 13.6032 10.0124 14.3997C10.5111 14.6891 10.6937 15.1823 10.5345 15.6778C10.3847 16.1386 9.96796 16.4303 9.45995 16.4581V16.4558Z" fill="#DFBB00"/>
<path d="M39.1011 4.26934C39.0332 4.4592 38.9958 4.66527 38.8951 4.83892C38.1015 6.21657 37.3032 7.58959 36.4932 8.95798C36.1631 9.51367 35.5169 9.68038 34.9855 9.3817C34.4611 9.08533 34.2808 8.44397 34.6063 7.8767C35.4022 6.48747 36.2122 5.10519 37.0269 3.72523C37.3008 3.25983 37.8065 3.07692 38.2911 3.2251C38.7734 3.37329 39.0683 3.76922 39.0988 4.26934H39.1011Z" fill="#DFBB00"/>
<path d="M12.9018 4.23531C12.9392 3.76992 13.2857 3.33926 13.7516 3.21191C14.2174 3.08457 14.7091 3.28137 14.976 3.73056C15.5963 4.77711 16.2074 5.83061 16.8207 6.88179C17.015 7.21289 17.2164 7.54167 17.399 7.87972C17.708 8.45393 17.5441 9.09066 17.0197 9.38471C16.4766 9.69034 15.8328 9.5028 15.4933 8.92627C14.7067 7.59029 13.9225 6.25201 13.1499 4.90909C13.0329 4.70533 12.9814 4.46222 12.8994 4.23531H12.9018Z" fill="#DFBB00"/>
<path d="M4.48816 23.7002C5.27711 23.7002 6.06605 23.6979 6.85265 23.7002C7.54327 23.7026 8.02787 24.1379 8.03958 24.7561C8.05128 25.3812 7.55498 25.8512 6.85031 25.8559C5.28647 25.8628 3.72263 25.8628 2.15879 25.8559C1.43774 25.8535 0.964844 25.4159 0.964844 24.7746C0.964844 24.1332 1.44008 23.7049 2.16113 23.7026C2.93603 23.7002 3.71093 23.7026 4.48816 23.7026V23.7002Z" fill="#DFBB00"/>
<path d="M47.5053 23.7002C48.2943 23.7002 49.0832 23.7002 49.8698 23.7002C50.5628 23.7002 51.038 24.1332 51.0427 24.7583C51.0497 25.3881 50.5862 25.8489 49.9026 25.8535C48.313 25.8628 46.7234 25.8628 45.1338 25.8535C44.4573 25.8489 43.9563 25.3719 43.968 24.7722C43.9797 24.1471 44.4549 23.7071 45.1409 23.7025C45.9298 23.6979 46.7187 23.7025 47.5053 23.7025V23.7002Z" fill="#DFBB00"/>
<path d="M27.0883 3.51745C27.0883 4.29773 27.0906 5.07801 27.0883 5.85829C27.0836 6.53207 26.6224 7.00904 25.995 7.00209C25.3957 6.99514 24.9275 6.51355 24.9251 5.86524C24.9158 4.29078 24.9181 2.71632 24.9251 1.14418C24.9275 0.481984 25.4191 -0.015823 26.0278 0.00038467C26.6622 0.0165923 27.0906 0.48893 27.093 1.17428C27.093 1.95456 27.093 2.73485 27.093 3.51513L27.0883 3.51745Z" fill="#DFBB00"/>
<path d="M25.942 53.8631C25.2303 53.8631 24.5186 53.8654 23.8069 53.8631C23.1163 53.8584 22.6247 53.4278 22.6012 52.8188C22.5802 52.2006 23.0695 51.7097 23.7741 51.7028C25.2607 51.6889 26.7496 51.6889 28.2362 51.7028C28.9268 51.7097 29.4091 52.1798 29.4044 52.7864C29.3997 53.3977 28.9175 53.8492 28.2292 53.8607C27.466 53.8723 26.7028 53.8631 25.9396 53.8631H25.942Z" fill="#DFBB00"/>
</g>
<defs>
<clipPath id="clip0_267_142">
<rect width="52" height="76" fill="white"/>
</clipPath>
</defs>
</svg>
