<svg width="63" height="58" viewBox="0 0 63 58" fill="none" xmlns="http://www.w3.org/2000/svg">
<g clip-path="url(#clip0_267_156)">
<path d="M44.3153 15.4651C47.1536 16.6538 49.9898 17.8405 52.8584 19.0418C52.8706 18.7936 52.8868 18.5538 52.8908 18.3119C52.9454 14.9416 53 11.5734 53.0466 8.20307C53.0506 7.86729 53.0142 7.52734 52.9636 7.19573C52.822 6.26973 52.5894 6.0862 51.6285 5.96315C51.3796 5.93187 51.1267 5.92144 50.882 5.90267C50.8638 5.88598 50.8435 5.87556 50.8415 5.86304C50.7404 5.08095 50.2002 4.85779 49.5488 4.82025C48.8792 4.78271 48.2056 4.77646 47.5339 4.77437C47.1556 4.77437 46.8259 4.72015 46.5164 4.43651C46.3282 4.2634 46.0147 4.19666 45.7476 4.1633C45.3066 4.10698 44.8595 4.10073 44.4145 4.09864C44.0888 4.09864 43.7853 4.17789 43.5547 4.45528C43.49 4.53244 43.3686 4.57833 43.2674 4.5971C42.8729 4.66801 42.6484 4.9141 42.5392 5.29577C42.5048 5.41673 42.4522 5.53144 42.3712 5.64197C42.353 5.29368 42.3348 4.94539 42.3126 4.5971C42.2701 3.91511 42.0172 3.57099 41.3597 3.45837C40.6416 3.33741 39.9093 3.21227 39.185 3.22061C37.7325 3.23521 36.282 3.34158 34.8316 3.40206C34.7486 3.40623 34.6434 3.34992 34.5847 3.28735C34.1802 2.85981 33.7917 2.41558 33.3871 1.99012C33.0432 1.62932 32.6164 1.3999 32.141 1.29145C30.2636 0.868078 28.3883 0.444705 26.5049 0.0484447C26.1408 -0.0287218 25.7524 0.0129898 25.3741 -0.00160925C25.2203 -0.007866 25.1697 0.0713861 25.1819 0.225719C25.2143 0.605295 25.2365 0.98487 25.5258 1.29979C24.7692 1.42493 24.0146 1.16632 23.2904 1.51044C23.2803 0.976528 22.8372 0.930645 22.461 0.818024C21.7994 0.621979 21.1379 0.42802 20.4703 0.259088C20.1972 0.190264 19.9059 0.177751 19.6227 0.169408C19.3031 0.15898 18.9834 0.196521 18.6658 0.181922C18.4534 0.17358 18.3057 0.234061 18.2268 0.438448C18.1702 0.586525 18.067 0.649092 17.9133 0.634493C17.2558 0.565669 16.8168 0.851393 16.4668 1.43536C15.8397 2.47815 15.1499 3.48131 14.4904 4.49699C14.1768 4.39271 13.8734 4.21961 13.5598 4.19666C12.4289 4.11741 11.2961 4.05693 10.1652 4.05067C8.94738 4.04442 7.72954 4.10699 6.5117 4.14244C6.26894 4.1487 6.02416 4.1633 5.7814 4.18624C5.21901 4.23838 4.84273 4.54496 4.69303 5.10806C4.55951 5.61695 4.4442 6.13 4.34103 6.64722C4.30664 6.82033 4.24797 6.89332 4.07602 6.92043C3.21423 7.06017 2.35445 7.22284 1.54121 7.56905C0.469025 8.02579 -0.0266075 8.74115 0.0037384 9.9341C0.0563354 11.9509 0.131184 13.9676 0.230312 15.9844C0.335506 18.1117 0.473068 20.239 0.608608 22.3642C0.725945 24.187 0.857437 26.0098 0.992977 27.8326C1.12447 29.5678 1.24383 31.305 1.4178 33.0361C1.61606 35.0257 1.83252 37.0133 2.11169 38.9904C2.27758 40.1583 2.55068 41.3137 2.83593 42.4608C2.96135 42.9634 3.19601 43.4494 3.44687 43.9061C3.94452 44.8113 4.76586 45.2034 5.73285 45.3765C7.16917 45.6351 8.5974 45.5537 10.0236 45.3452C13.2685 44.8697 16.4446 44.0584 19.6085 43.1929C19.8493 43.1261 20.088 43.051 20.3672 42.9676C20.1467 42.7278 19.9686 42.513 19.7684 42.3253C19.7178 42.2773 19.5924 42.2856 19.5114 42.3065C17.5451 42.7924 15.5868 43.3055 13.6164 43.7685C11.9394 44.1647 10.2441 44.4797 8.52457 44.6173C7.47262 44.7028 6.42876 44.6402 5.39703 44.3837C4.68899 44.2085 4.09422 43.5307 3.88383 42.7674C3.99712 42.7987 4.09018 42.8154 4.17717 42.8466C5.13809 43.2075 6.1334 43.2408 7.1368 43.1616C9.35804 42.9843 11.553 42.6089 13.7358 42.1688C15.3158 41.8497 16.8917 41.5035 18.4696 41.1678C18.5161 41.1573 18.5627 41.1406 18.6517 41.1135C18.5708 41.0176 18.5101 40.9425 18.4453 40.8695C17.2841 39.5639 16.1897 38.2083 15.4938 36.5628C14.6421 34.5502 14.278 32.4375 14.4095 30.256C14.4904 28.9108 14.6826 27.5719 14.8606 26.235C15.1721 23.8762 15.512 21.5237 15.8357 19.167C15.8599 18.9834 15.9186 18.8854 16.1148 18.8875C16.3111 18.8875 16.5073 18.8646 16.7096 18.85C16.6125 19.5048 16.5215 20.1201 16.4324 20.7332C16.4527 20.7353 16.4709 20.7374 16.4911 20.7395C16.7076 20.3078 16.9119 19.8677 17.1425 19.4443C17.7575 18.316 18.5566 17.3442 19.4892 16.4787C20.9781 15.098 22.7179 14.1595 24.5305 13.3357C25.0969 13.0792 25.6714 12.8435 26.2379 12.5473C23.8953 12.7496 21.5526 12.954 19.1574 13.1605C19.1938 12.929 19.2161 12.7017 19.2687 12.4827C19.4649 11.6776 19.6733 10.8768 19.8695 10.0717C19.914 9.8903 20.0152 9.82356 20.1912 9.81313C23.0517 9.63586 25.9122 9.46484 28.7707 9.27297C31.0182 9.12072 33.2617 8.93928 35.5072 8.77034C36.1607 8.72029 36.8141 8.67232 37.4675 8.61601C37.6334 8.60141 37.6698 8.69943 37.6921 8.82874C37.8074 9.50238 37.9247 10.1739 38.036 10.8476C38.0785 11.0999 38.1108 11.3565 38.1533 11.6422C37.2045 11.7173 36.28 11.7924 35.309 11.8695C36.5005 12.3429 37.6374 12.7934 38.7764 13.246C39.0677 12.4514 39.094 11.6714 38.9281 10.8643C38.7744 10.1114 38.6752 9.34805 38.5458 8.54719C38.9038 8.5159 39.266 8.48253 39.6301 8.45334C41.297 8.31777 42.964 8.18638 44.6309 8.05082C46.4233 7.90691 48.2157 7.76092 50.008 7.61493C50.6453 7.56279 51.2825 7.51691 51.9177 7.45434C52.1119 7.43557 52.1686 7.50023 52.1726 7.69001C52.1908 8.90174 52.2374 10.1155 52.2353 11.3273C52.2333 12.418 52.1767 13.5088 52.1484 14.6016C52.1443 14.7434 52.1362 14.8394 51.9501 14.8498C50.9265 14.9124 49.9049 14.9895 48.8833 15.0625C47.4672 15.1647 46.0511 15.2711 44.635 15.3754C44.5358 15.3837 44.4367 15.3983 44.3396 15.4087C44.3396 15.4254 44.3356 15.44 44.3335 15.4567L44.3153 15.4651ZM18.9733 9.90699C18.9531 10.0029 18.943 10.0613 18.9308 10.1197C18.7346 10.9685 18.5121 11.8132 18.3523 12.6704C18.2066 13.4483 18.0812 14.22 17.6159 14.8811C17.5633 14.9562 17.5228 15.0479 17.5006 15.1397C17.2963 15.9677 17.0818 16.7936 16.9079 17.6278C16.8553 17.8781 16.7541 17.9552 16.5336 17.9719C14.5652 18.1242 12.5969 18.2931 10.6265 18.4328C8.95749 18.5496 7.28853 18.6518 5.61754 18.7269C4.86296 18.7603 4.10434 18.7457 3.35178 18.6873C2.61946 18.631 2.0065 18.2326 1.40567 17.8259C1.2236 17.7029 1.15684 17.5569 1.14875 17.3337C1.1002 16.2096 1.02333 15.0855 0.978821 13.9593C0.926224 12.6182 0.895874 11.2751 0.859459 9.9341C0.857437 9.8465 0.885761 9.75891 0.901947 9.66089C0.974773 9.68174 1.01725 9.688 1.05569 9.70468C2.22295 10.2073 3.45496 10.3491 4.70314 10.3783C8.63179 10.4722 12.5503 10.2303 16.4709 10.0363C17.2922 9.99458 18.1136 9.95078 18.9733 9.90699ZM20.2579 8.96222C20.266 8.84751 20.2599 8.80997 20.2721 8.78077C21.0044 6.91209 21.7388 5.04758 22.467 3.1789C22.5297 3.01831 22.6269 2.95992 22.7907 2.95366C26.0235 2.85355 29.2582 2.74927 32.491 2.64082C32.7175 2.63248 32.8956 2.68253 33.0473 2.86606C34.3622 4.45319 35.6812 6.03615 36.9982 7.62119C37.0285 7.65664 37.0427 7.70461 37.0892 7.79012C31.4653 8.18221 25.8798 8.57221 20.2579 8.9643V8.96222ZM11.7472 40.4044C11.5651 40.3836 11.3102 40.3752 11.0675 40.3189C10.3149 40.1458 9.7323 39.7496 9.52596 38.932C9.18205 37.566 9.98113 35.9058 11.2455 35.3344C12.081 34.9569 12.8922 35.0716 13.7034 35.4428C14.8788 35.9809 15.3785 37.2281 14.8302 38.4315C14.2375 39.735 13.1977 40.3544 11.7452 40.4023L11.7472 40.4044ZM17.889 8.38034C17.8263 8.5159 17.7454 8.65147 17.6988 8.79746C17.622 9.04356 17.4662 9.12281 17.2275 9.12906C16.657 9.14158 16.0865 9.17495 15.514 9.1958C12.3986 9.30217 9.2832 9.41479 6.16779 9.50447C5.01671 9.53784 3.86361 9.50655 2.72871 9.27923C2.22498 9.17703 1.73339 9.00601 1.23574 8.86628C1.23574 8.83083 1.23978 8.79329 1.23978 8.75783C2.12585 8.11964 3.16972 8.00076 4.1974 7.79846C4.29045 8.47002 4.51905 8.7474 5.14416 8.86002C5.72274 8.9643 6.30738 9.03521 6.89405 9.07275C8.40724 9.17078 9.91842 9.13532 11.4235 8.96013C12.3905 8.84751 13.3514 8.69109 14.3144 8.54927C14.6118 8.50548 14.7615 8.29692 14.8161 8.00911C14.8626 7.76509 14.9051 7.52108 14.9536 7.24578C15.9307 7.62327 16.8998 7.99868 17.885 8.38034H17.889ZM13.2199 7.8506C13.2118 7.69418 13.2098 7.59199 13.2038 7.4898C13.1754 7.06642 13.1572 6.64305 13.1127 6.22176C13.0743 5.87973 12.9873 5.83593 12.6616 5.88181C10.936 6.12374 9.20228 6.26765 7.46251 6.14877C6.85763 6.10706 6.26085 5.93395 5.66002 5.81925C5.41524 5.77128 5.42131 5.63154 5.49212 5.41882C5.61147 5.05175 5.89671 5.03924 6.17993 5.03507C8.35464 5.01004 10.5294 4.9871 12.7041 4.98293C13.0338 4.98293 13.3656 5.08095 13.6933 5.1456C13.9199 5.1894 14.0291 5.35625 14.0615 5.58149C14.1566 6.24679 14.1505 6.91001 14.019 7.56905C14.0049 7.63579 13.932 7.72755 13.8734 7.74215C13.6731 7.79221 13.4647 7.81306 13.224 7.84852L13.2199 7.8506ZM40.8419 6.58883C40.8419 6.37401 40.8459 6.16128 40.8419 5.95064C40.8277 5.23111 40.7893 5.19357 40.0893 5.19149C38.9726 5.1894 37.8539 5.17272 36.7372 5.19566C36.3367 5.204 36.0211 5.13101 35.8046 4.75352C35.7035 4.57624 35.5558 4.42816 35.3919 4.21961C36.0352 4.18207 36.6017 4.14244 37.1701 4.11741C38.4891 4.0611 39.8061 4.05067 41.115 4.28843C41.3334 4.32806 41.4508 4.43859 41.4508 4.65966C41.4508 5.14352 41.4649 5.62946 41.4285 6.11123C41.4002 6.48663 41.293 6.55337 40.8439 6.58674L40.8419 6.58883ZM18.5788 9.00601C18.6557 8.75783 18.7427 8.5159 18.8054 8.26772C18.8803 7.9674 18.8924 7.64205 19.0057 7.36049C19.6247 5.83802 20.266 4.32806 20.9053 2.81601C20.9275 2.76387 21.0287 2.72425 21.0954 2.72216C21.1764 2.71799 21.2573 2.76179 21.3382 2.78056C21.6659 2.85564 21.6599 2.85355 21.5324 3.18307C20.8062 5.0601 20.0839 6.9392 19.3536 8.81414C19.3233 8.89339 19.2242 8.98724 19.1453 8.99767C18.9592 9.02479 18.767 9.00601 18.5788 9.00601ZM46.4273 6.71396C46.3194 6.40112 46.1185 6.25513 45.8245 6.27599C45.7415 6.28225 45.6586 6.29476 45.5757 6.30519C45.1792 6.35524 45.1367 6.32187 45.1367 5.91101C45.1367 5.70037 45.076 5.57941 44.8514 5.58775C44.5864 5.59818 44.4893 5.41256 44.4347 5.1894C44.3983 5.03924 44.4489 4.9579 44.6147 4.97042C44.9667 4.99753 45.3187 5.00796 45.6687 5.04133C45.78 5.05175 45.8933 5.09764 45.9944 5.15186C46.2493 5.28951 46.4901 5.4647 46.753 5.5794C47.0646 5.71497 47.4348 6.18005 47.4429 6.54503C47.1131 6.59925 46.7773 6.65556 46.4314 6.71396H46.4273ZM49.7976 5.81508C49.2251 5.81925 48.6486 5.8839 48.0923 5.69828C48.6708 5.57732 49.2373 5.64823 49.7976 5.81508ZM41.469 7.42514C42.1123 6.91626 42.1426 6.91418 42.4946 7.35006C42.173 7.37301 41.8574 7.39595 41.469 7.42514ZM48.2723 6.77861C48.6021 6.59925 48.9419 6.7223 49.2777 6.73482C48.9439 6.77653 48.6122 6.91418 48.2723 6.77861Z" fill="white"/>
<path d="M62.9352 35.2196C62.9514 33.718 62.8907 32.2227 62.6095 30.7461C62.2393 28.7898 61.2703 27.1693 59.9735 25.7219C58.078 23.605 55.7232 22.1994 53.2309 20.9855C50.4372 19.6237 47.5584 18.4724 44.6858 17.3087C41.9608 16.2054 39.2338 15.1063 36.5068 14.0114C35.5378 13.6214 34.5688 13.2293 33.529 13.0812C32.1554 12.8852 30.7959 12.9748 29.4486 13.2856C26.667 13.9259 24.0836 15.05 21.7066 16.6726C19.7362 18.0178 18.3687 19.8552 17.5494 22.1368C16.7523 24.3538 16.2122 26.6312 15.9755 28.9838C15.8056 30.6585 15.8298 32.3186 16.2122 33.9662C16.6633 35.9058 17.5433 37.6097 18.8744 39.0467C20.8347 41.1656 22.797 43.2825 24.8119 45.3472C27.5005 48.1002 30.2093 50.8365 33.0738 53.3976C34.2492 54.4487 35.4609 55.4477 36.8062 56.2652C38.2486 57.1433 39.8144 57.6146 41.4591 57.8503C42.9764 58.0672 44.4916 58.0776 45.9967 57.7356C47.8396 57.3184 49.5592 56.5843 51.1958 55.6187C53.8499 54.0524 55.9721 51.8751 57.902 49.4725C59.0794 48.0063 60.0929 46.4275 60.9284 44.7299C61.77 43.0176 62.3222 41.2053 62.5771 39.3074C62.7592 37.9538 62.8644 36.5899 63.002 35.2301C62.9797 35.228 62.9595 35.2259 62.9372 35.2238L62.9352 35.2196ZM30.9436 43.6329C30.9841 43.1448 31.0205 42.2334 31.1398 41.3346C31.4089 39.2969 31.9329 37.3198 32.6247 35.3927C33.2943 33.5282 34.1177 31.7451 35.2748 30.1392C36.434 28.5291 37.8359 27.1902 39.4321 26.0514C40.7895 25.0816 42.2157 24.2453 43.737 23.5842C45.5011 22.8188 47.348 22.3975 49.2577 22.2995C50.7244 22.2244 52.183 22.3057 53.6153 22.6582C55.0496 23.0127 56.2937 23.774 57.5095 24.6103C58.8103 25.5071 59.8562 26.6437 60.7119 27.9848C61.7679 29.6407 62.0511 31.5073 62.13 33.4302C62.2029 35.1988 62.1118 36.9611 61.8893 38.7172C61.6081 40.9195 60.983 43.0051 59.9472 44.9551C59.0227 46.6945 57.8919 48.2858 56.6396 49.7853C54.7846 52.0086 52.711 53.9586 50.158 55.3163C47.3743 56.795 44.4734 57.5812 41.3135 57.0265C39.7234 56.747 38.2163 56.2673 36.8427 55.3768C35.4751 54.4904 34.2917 53.3725 33.1426 52.2192C32.3718 51.4455 31.8883 50.4986 31.6152 49.4266C31.1661 47.6664 30.9841 45.8707 30.9456 43.635L30.9436 43.6329ZM51.4891 21.0273C51.483 21.0523 51.4749 21.0752 51.4689 21.1003C51.2443 21.0794 51.0178 21.0481 50.7932 21.0419C48.6772 20.9835 46.6036 21.24 44.5887 21.9366C42.2744 22.7374 40.1806 23.9596 38.2183 25.4445C35.8534 27.236 34.0064 29.4739 32.6733 32.1705C31.4817 34.5856 30.6988 37.1425 30.1648 39.785C29.748 41.8434 29.6388 43.9207 29.8411 46.0125C29.8694 46.2962 29.8896 46.5798 29.9139 46.8655C29.7642 46.7717 29.6711 46.6611 29.5781 46.5527C28.4371 45.2137 27.5086 43.7184 26.582 42.2209C26.4141 41.9477 26.3312 41.6745 26.3271 41.3471C26.315 39.4388 26.3656 37.5346 26.6812 35.6493C26.9927 33.7889 27.5875 32.0183 28.3724 30.3144C28.4654 30.1141 28.4553 29.9848 28.2874 29.8472C28.0831 29.6803 27.8929 29.4968 27.6967 29.3195C25.5422 27.3612 23.3857 25.4007 21.2292 23.4424C21.1624 23.3819 21.0876 23.3297 20.9945 23.2588C19.7828 25.7407 19.016 28.3372 18.5184 31.061C18.4557 30.9901 18.4172 30.9546 18.3909 30.9129C17.7942 30.0015 17.337 29.0213 17.0942 27.9493C17.0295 27.6594 16.9789 27.3403 17.0295 27.0546C17.3511 25.2923 17.7962 23.5633 18.4658 21.9032C19.0929 20.3474 20.0114 19.0105 21.3 17.9594C22.2994 17.146 23.3877 16.4828 24.5348 15.9134C26.0439 15.1668 27.5956 14.5432 29.2281 14.1428C30.7959 13.759 32.3739 13.588 33.968 13.9717C34.4029 14.076 34.8257 14.2304 35.2546 14.3597C35.2485 14.3743 35.2425 14.3889 35.2364 14.4035C34.1258 14.6704 33.0172 14.9353 31.9066 15.2022L31.9126 15.2857C31.9733 15.3295 32.03 15.3774 32.0947 15.415C33.2397 16.0865 34.3867 16.756 35.5318 17.4275C37.051 18.316 38.5683 19.2065 40.0896 20.0867C40.1786 20.1388 40.3161 20.1451 40.4213 20.1221C42.2177 19.7238 44.0121 19.3213 45.8045 18.9083C46.1747 18.8228 46.5105 18.8645 46.8565 19.0168C47.7587 19.4151 48.6691 19.7905 49.5754 20.1805C50.2146 20.4558 50.8519 20.7415 51.4891 21.0231V21.0273Z" fill="white"/>
<path d="M46.2471 11.2415C45.3024 11.3166 44.3577 11.3958 43.4109 11.4667C43.1641 11.4855 43.0427 11.6002 43.0387 11.8526C43.0326 12.2238 43.0083 12.5971 43.0245 12.9663C43.0367 13.2687 43.1641 13.4001 43.4494 13.398C44.1271 13.3917 44.8068 13.375 45.4845 13.3291C46.0873 13.2874 46.6861 13.2144 47.2849 13.1289C47.8231 13.0538 47.8676 12.9996 47.9202 12.449C47.9465 12.1842 47.9424 11.913 47.9343 11.6461C47.9262 11.3896 47.7907 11.254 47.5317 11.2561C47.1049 11.2602 46.676 11.2561 46.2492 11.2561C46.2492 11.2498 46.2492 11.2436 46.2492 11.2373L46.2471 11.2415Z" fill="#DFBB00"/>
<path d="M39.1997 12.8408C39.222 13.4164 39.5942 13.8043 40.1566 13.796C40.2557 13.796 40.369 13.7397 40.4519 13.675C40.808 13.4039 40.9941 13.0223 41.0507 12.578C41.1175 12.0566 40.8707 11.6771 40.4074 11.5603C40.0089 11.4602 39.4789 11.7626 39.3413 12.188C39.2746 12.3987 39.2442 12.6218 39.1977 12.8387L39.1997 12.8408Z" fill="#DFBB00"/>
<path d="M13.9893 37.8343C13.9609 37.63 13.9468 37.4214 13.9043 37.2191C13.7688 36.5601 13.3621 36.1596 12.7431 35.9886C12.209 35.8405 11.7073 35.9156 11.3472 36.3744C11.1631 36.608 11.0094 36.9083 10.9568 37.2003C10.8819 37.6174 10.8577 38.0638 10.9082 38.485C10.9932 39.2004 11.5859 39.6029 12.3466 39.532C12.7653 39.4924 13.1457 39.336 13.4795 39.0732C13.8638 38.7729 13.9953 38.435 13.9872 37.8343H13.9893Z" fill="#DFBB00"/>
<path d="M34.5147 41.6446C34.5673 44.3559 35.338 46.7814 37.1183 48.8107C38.3563 50.2226 39.9241 51.0235 41.7529 51.2424C45.012 51.6324 47.921 50.6731 50.5206 48.6814C53.0695 46.7292 54.9631 44.2453 56.0433 41.1441C56.6057 39.5257 56.7757 37.8447 56.7028 36.1324C56.6381 34.6079 56.4055 33.1167 55.8653 31.6922C54.8012 28.8809 52.8895 27.0435 49.9804 26.4178C48.356 26.0695 46.7538 26.2697 45.1779 26.7515C42.819 27.471 40.6646 28.5826 38.8762 30.3595C37.8041 31.4253 37.0394 32.7204 36.3819 34.0823C35.5545 35.7966 34.9901 37.6048 34.7129 39.5006C34.6097 40.2097 34.5774 40.9292 34.5126 41.6446H34.5147ZM42.283 41.4423C42.0989 41.4256 41.9107 41.4277 41.7327 41.3881C40.4784 41.1003 39.5013 40.3807 38.7569 39.3171C38.3664 38.7582 38.1824 38.1283 38.2167 37.4359C38.2835 36.0803 38.9147 35.0062 39.8655 34.1365C40.266 33.7694 40.7475 33.4587 41.2431 33.2522C42.2 32.8539 43.2135 32.783 44.2392 32.9436C45.5197 33.1438 46.2824 33.8654 46.5596 35.1543C46.7174 35.8821 46.6364 36.6017 46.4928 37.317C46.1813 38.8541 45.4368 40.0908 44.1016 40.9063C43.5433 41.2483 42.9424 41.4465 42.283 41.4444V41.4423Z" fill="#DFBB00"/>
<path d="M30.697 26.3366C31.6134 25.0665 32.7058 23.9716 33.9561 23.0226C33.2682 22.5263 32.6108 22.0466 31.9513 21.5773C30.1629 20.301 28.3726 19.0267 26.5802 17.7586C26.5114 17.7086 26.3617 17.6919 26.299 17.7336C25.3159 18.4135 24.3185 19.0767 23.4709 19.9401C23.388 20.0236 23.2787 20.0799 23.1331 20.1842C25.7063 22.276 28.1966 24.3011 30.699 26.3345L30.697 26.3366Z" fill="white"/>
</g>
<defs>
<clipPath id="clip0_267_156">
<rect width="63" height="58" fill="white" transform="matrix(-1 0 0 1 63 0)"/>
</clipPath>
</defs>
</svg>
