<svg width="74" height="52" viewBox="0 0 74 52" fill="none" xmlns="http://www.w3.org/2000/svg">
<g clip-path="url(#clip0_267_127)">
<path d="M37.0499 34.6315C37.6857 33.9765 38.2936 33.3411 38.9099 32.714C39.3728 32.243 39.8358 31.772 40.3098 31.3121C41.1604 30.4872 41.9552 30.4537 42.8615 31.2146C43.3941 31.6605 43.91 32.126 44.4287 32.5886C44.9279 33.0345 45.5051 33.3355 46.127 33.578C49.2921 34.8182 52.4517 36.0724 55.6112 37.3237C56.3279 37.608 56.8522 38.1152 57.237 38.7785C57.9342 39.9797 58.2186 41.3091 58.4919 42.6497C59.0497 45.3782 59.2616 48.1457 59.4624 50.916C59.4791 51.1584 59.4986 51.4009 59.5293 51.6434C59.5628 51.9054 59.4429 52.0001 59.1947 51.9918C58.9521 51.9862 58.7094 52.0001 58.464 52.0001C44.1889 52.0001 29.9137 51.9973 15.6413 51.9945C15.3513 51.9945 15.0613 51.989 14.7712 51.9862C14.5733 51.9862 14.4756 51.9054 14.4896 51.688C14.7378 48.2126 14.9916 44.7372 15.8114 41.337C15.9648 40.6988 16.199 40.0801 16.4417 39.4669C16.9046 38.2936 17.7495 37.5355 18.9431 37.0813C21.3636 36.1643 23.7591 35.1777 26.1657 34.2246C26.8545 33.9514 27.5629 33.7285 28.2349 33.4191C28.6923 33.2101 29.1245 32.9258 29.5205 32.6193C30.0587 32.2012 30.5523 31.7246 31.071 31.2787C32.0693 30.4231 32.8502 30.4565 33.7732 31.379C34.7827 32.3851 35.7894 33.3913 36.7989 34.3974C36.8547 34.4531 36.916 34.5061 37.0499 34.6259V34.6315Z" fill="white"/>
<path d="M45.74 24.3834C45.3747 24.9548 45.0512 25.5567 44.6384 26.0919C43.2525 27.8978 41.5374 29.269 39.3065 29.8961C36.08 30.7991 33.2914 29.8905 30.8597 27.739C28.8407 25.9525 27.7308 23.6198 27.0726 21.0474C26.7798 19.9075 27.0085 20.1165 25.8401 20.097C25.3437 20.0886 24.8389 20.1165 24.3509 20.0385C23.4028 19.8824 22.7056 19.1327 22.6749 18.1795C22.6247 16.6773 22.647 15.1696 22.6387 13.6646C22.6387 13.4221 22.6387 13.1796 22.6387 12.9344C22.6387 12.3547 22.8032 11.8307 23.2243 11.4238C23.5645 11.095 23.7179 10.7076 23.8155 10.2449C24.6967 6.11179 27.0754 3.15478 30.921 1.4129C33.0627 0.44023 35.3215 -0.172912 37.6891 0.038901C41.8219 0.409573 45.4416 1.89226 48.0323 5.30913C49.1589 6.7974 49.87 8.48354 50.2046 10.323C50.2771 10.7187 50.4054 11.0671 50.6982 11.3653C51.1667 11.8391 51.3647 12.4216 51.3591 13.0988C51.3424 14.6958 51.3591 16.2955 51.3508 17.8925C51.3424 19.1996 50.4584 20.0747 49.1394 20.0914C48.6541 20.097 48.1661 20.1137 47.6809 20.0831C47.3351 20.0608 47.1315 20.1806 46.9502 20.4732C45.7372 22.4325 43.9887 23.6476 41.7466 24.1605C41.4315 24.2329 41.1108 24.3137 40.7901 24.3193C40.5531 24.3249 40.2853 24.2636 40.0846 24.1437C39.7053 23.9152 39.326 23.7563 38.8799 23.7786C38.35 23.8037 37.809 23.7675 37.2903 23.8567C36.5179 23.9904 36.041 24.7206 36.1302 25.5038C36.2167 26.2535 36.8525 26.8248 37.6222 26.836C38.0739 26.8416 38.5257 26.836 38.9775 26.836C39.4655 26.836 39.8754 26.6716 40.2156 26.312C40.3132 26.2117 40.4554 26.1058 40.5865 26.0919C42.3991 25.9079 44.103 25.423 45.6005 24.3388C45.6173 24.3277 45.6424 24.3277 45.6647 24.3221C45.6898 24.3416 45.7149 24.3611 45.7372 24.3806L45.74 24.3834ZM47.8594 10.7633C47.8398 10.7354 47.8231 10.7048 47.8036 10.6769C47.7924 10.6212 47.7868 10.5626 47.7673 10.5069C47.5191 9.82409 47.3156 9.11897 47.006 8.46681C46.0607 6.46853 44.6189 4.90223 42.6362 3.9212C40.0873 2.65869 37.4019 2.19326 34.5769 2.79804C30.9545 3.57283 28.2662 5.52095 26.7798 8.97684C26.5623 9.48407 26.4062 10.0192 26.2444 10.5487C26.1608 10.8218 26.3448 11.0197 26.7269 11.1451C27.0392 11.2482 27.0029 10.9779 27.0615 10.833C27.4686 9.80179 28.0264 8.85978 28.757 8.02368C30.4023 6.14245 32.5803 5.24503 34.959 4.82698C37.3321 4.41172 39.6495 4.70714 41.9 5.63521C44.3847 6.66083 46.0467 8.4278 46.9781 10.9222C47.0144 11.0197 47.1845 11.1619 47.2263 11.1423C47.4494 11.042 47.653 10.8943 47.8621 10.7605L47.8594 10.7633Z" fill="#DFBB00"/>
<path d="M65.0571 30.5229C64.9372 30.7263 64.8201 30.9298 64.6946 31.1304C63.7158 32.6716 62.3939 33.7641 60.5757 34.1292C58.3448 34.578 56.5294 33.7446 55.0291 32.1393C53.9415 30.9771 53.3419 29.553 53.024 28.009C52.9627 27.7136 52.8428 27.6801 52.5778 27.694C52.1763 27.7163 51.7635 27.7136 51.3675 27.655C50.7011 27.5603 50.2716 27.106 50.2493 26.3925C50.2103 25.2248 50.2158 24.0542 50.2549 22.8865C50.2632 22.6273 50.4835 22.3764 50.6118 22.1228C50.7234 21.8999 50.8963 21.6908 50.9493 21.4539C51.6631 18.1708 53.6961 16.1168 56.8724 15.1999C60.4837 14.1548 63.6182 15.0717 66.2228 17.7416C67.143 18.6864 67.6645 19.8876 67.9378 21.178C68.0242 21.5849 68.2027 21.9249 68.4398 22.2622C68.5876 22.474 68.6907 22.761 68.6991 23.0174C68.7298 24.0709 68.7242 25.1244 68.7186 26.1779C68.713 27.1227 68.2724 27.6132 67.3299 27.708C67.0092 27.7414 66.6801 27.694 66.3594 27.7247C66.2116 27.7386 66.0136 27.8222 65.9383 27.9393C64.9958 29.3969 63.6377 30.1773 61.9505 30.4337C61.8111 30.456 61.6326 30.3891 61.5071 30.3083C60.8406 29.8763 60.124 29.9878 59.4296 30.1522C59.0503 30.2414 58.8328 30.757 58.8886 31.1806C58.9444 31.5847 59.2706 31.947 59.6806 31.9777C60.1267 32.0111 60.5813 32.0083 61.0303 31.9888C61.1781 31.9832 61.3231 31.869 61.4681 31.8049C61.694 31.7045 61.9115 31.5457 62.1457 31.515C63.172 31.3813 64.1257 31.0719 64.9762 30.4699C65.0013 30.4866 65.0264 30.5033 65.0515 30.5201L65.0571 30.5229ZM66.0053 21.911C66.4068 21.8413 66.4626 21.7717 66.3566 21.3703C65.8993 19.6089 64.8647 18.2823 63.2835 17.3933C61.2729 16.2617 59.1563 16.128 56.9783 16.8303C54.7251 17.5577 53.2917 19.0878 52.6197 21.348C52.5472 21.5933 52.5109 21.819 52.8177 21.9082C53.1021 21.989 53.0826 21.7131 53.1411 21.5682C53.6347 20.328 54.4407 19.3525 55.6231 18.7255C57.3604 17.8057 59.2065 17.5159 61.139 17.9256C62.8234 18.2823 64.293 19.0042 65.2607 20.5008C65.5451 20.9411 65.7543 21.4344 66.0025 21.9082L66.0053 21.911Z" fill="#DFBB00"/>
<path d="M20.1452 30.4373C19.989 30.7076 19.8635 30.9501 19.7157 31.1731C18.7062 32.7031 17.3649 33.7984 15.5299 34.1357C13.4635 34.5147 11.729 33.804 10.2677 32.3492C9.10763 31.1926 8.4774 29.7601 8.08419 28.1965C7.95592 27.6837 7.94197 27.706 7.39818 27.7088C6.99662 27.7088 6.58389 27.6977 6.19627 27.6029C5.64969 27.4691 5.30947 27.026 5.30111 26.4602C5.2788 25.2674 5.27322 24.0773 5.30111 22.8845C5.30669 22.642 5.48795 22.4024 5.59671 22.1655C5.73335 21.8645 5.93692 21.583 6.01222 21.268C6.83487 17.8177 9.1411 15.8947 12.4485 15.0363C15.0865 14.3507 17.5071 14.9694 19.752 16.4242C21.5172 17.5697 22.5323 19.214 22.9757 21.2513C23.0454 21.5746 23.2211 21.8923 23.4107 22.171C23.6143 22.4692 23.7593 22.7647 23.7593 23.127C23.7593 24.1442 23.776 25.1643 23.7537 26.1815C23.7342 27.1291 23.2406 27.6168 22.298 27.6865C22.206 27.6921 22.1084 27.72 22.0219 27.7005C21.3554 27.5416 20.9873 27.8398 20.6053 28.3888C19.7324 29.6486 18.4329 30.2534 16.9298 30.4261C16.7793 30.4429 16.598 30.3537 16.4558 30.2701C15.7865 29.8771 15.0921 29.9719 14.4173 30.192C14.0519 30.3119 13.8679 30.8191 13.9348 31.2204C14.0073 31.6413 14.3085 31.9451 14.7575 31.9841C15.159 32.0175 15.569 32.0315 15.9677 31.9924C16.1797 31.9729 16.3777 31.8197 16.5813 31.7249C16.6928 31.6719 16.7988 31.5772 16.9131 31.5632C18.023 31.4323 19.0576 31.1118 19.9751 30.454C19.9974 30.4373 20.0364 30.4457 20.134 30.4373H20.1452ZM14.42 16.3991C13.3715 16.3824 12.3787 16.6416 11.425 17.0485C9.46737 17.8846 8.22363 19.3478 7.64637 21.3879C7.58224 21.6164 7.58224 21.8282 7.82206 21.9146C8.08698 22.0094 8.10093 21.739 8.16228 21.5858C8.56942 20.588 9.15783 19.7268 10.0586 19.1165C12.0051 17.7954 14.1495 17.4443 16.4195 17.9794C18.5277 18.4755 20.1703 19.5791 20.9065 21.7418C20.9372 21.8282 21.1324 21.9536 21.1547 21.9341C21.2746 21.8394 21.4335 21.714 21.4503 21.583C21.4726 21.413 21.3805 21.2262 21.322 21.0507C20.2762 17.9571 17.5378 16.4577 14.42 16.3991Z" fill="#DFBB00"/>
<path d="M19.4983 35.9469C18.8569 36.1921 18.2853 36.4039 17.7164 36.6269C16.8714 36.9558 16.2579 37.5355 15.8229 38.3298C15.148 39.57 14.8831 40.9273 14.6098 42.2901C14.2417 44.1323 14.0186 45.9912 13.8792 47.8613C13.8513 48.2236 13.7202 48.3073 13.3633 48.3045C9.28625 48.2822 5.20644 48.2794 1.12662 48.271C0.769671 48.271 0.412722 48.271 0 48.271C0.0306753 47.8139 0.058562 47.3903 0.0892373 46.9695C0.245402 44.8904 0.432243 42.8196 1.04854 40.813C1.3776 39.74 2.0162 39.0126 3.11773 38.6168C5.0196 37.9312 6.888 37.1509 8.76198 36.39C9.10778 36.2479 9.42847 36.0221 9.72965 35.7936C10.1061 35.5065 10.4408 35.1637 10.8089 34.8655C11.3471 34.4307 11.7933 34.4224 12.298 34.8878C12.8864 35.4285 13.4386 36.0082 14.0019 36.5739C14.1636 36.7384 14.3086 36.9195 14.4843 37.1174C14.9612 36.6408 15.3906 36.2089 15.8257 35.7797C16.1213 35.487 16.4141 35.1888 16.7208 34.9073C17.2033 34.467 17.6411 34.428 18.157 34.8237C18.606 35.1665 19.0243 35.5483 19.5011 35.9524L19.4983 35.9469Z" fill="white"/>
<path d="M73.9836 48.2849C73.6239 48.2849 73.2892 48.2849 72.9546 48.2849C68.8302 48.2849 64.7057 48.2849 60.5813 48.296C60.269 48.296 60.1574 48.2013 60.1379 47.8891C59.9734 45.5202 59.6527 43.1679 59.0921 40.8603C58.8718 39.9601 58.4982 39.0906 58.1217 38.2377C57.7843 37.4769 57.1485 36.9836 56.3844 36.6686C55.7987 36.4262 55.2075 36.1921 54.5996 35.9468C54.6108 35.9189 54.6191 35.8576 54.6554 35.8242C55.0263 35.4925 55.3888 35.1497 55.7792 34.8404C56.2951 34.4335 56.7329 34.4251 57.2182 34.8654C57.9125 35.4953 58.5651 36.1698 59.2344 36.8275C59.3152 36.9083 59.371 37.0142 59.4268 37.0923C60.0654 36.4708 60.6538 35.8994 61.2394 35.3253C62.2824 34.3025 62.5557 34.2662 63.6321 35.2584C64.4018 35.9663 65.2774 36.4234 66.2451 36.7829C67.935 37.4156 69.6026 38.104 71.2786 38.7673C71.9116 39.0181 72.3606 39.4584 72.6674 40.0632C73.1498 41.0192 73.345 42.0587 73.4817 43.0983C73.6992 44.7482 73.8358 46.4092 74.0059 48.0675C74.0115 48.1121 74.0003 48.1567 73.9892 48.2793L73.9836 48.2849Z" fill="white"/>
</g>
<defs>
<clipPath id="clip0_267_127">
<rect width="74" height="52" fill="white"/>
</clipPath>
</defs>
</svg>
