<svg width="62" height="53" viewBox="0 0 62 53" fill="none" xmlns="http://www.w3.org/2000/svg">
<g clip-path="url(#clip0_267_114)">
<path d="M30.9915 52.9947C22.6279 52.9947 14.2642 52.9947 5.90308 52.9947C4.74069 52.9947 4.25909 52.5285 4.25909 51.3706C4.25657 46.8343 4.25909 42.2979 4.25909 37.7641C4.25909 34.5185 4.25909 31.2704 4.25909 28.0247C4.25909 27.7892 4.24144 27.6287 3.98173 27.4834C0.446655 25.526 -1.00066 20.9195 0.731579 17.2528C2.33018 13.8668 3.90861 10.4734 5.4946 7.07988C6.41746 5.10243 7.35796 3.13 8.24551 1.13752C8.60355 0.333011 9.16079 0.0172211 10.0257 0.0172211C20.7696 0.0297524 31.5135 0.0272462 42.2574 0.0247399C45.4319 0.0247399 48.6064 0.0523088 51.7809 -0.000322761C52.8046 -0.0178666 53.3896 0.315467 53.8233 1.26534C56.259 6.58364 58.7679 11.8719 61.2263 17.1826C63.0089 21.0348 61.6297 25.3581 57.9786 27.5385C57.85 27.6162 57.7416 27.8418 57.7416 27.9997C57.7315 35.7516 57.7341 43.5034 57.7366 51.2553C57.7366 51.4232 57.7467 51.5912 57.729 51.7566C57.6559 52.5435 57.1693 52.9846 56.312 52.9947C54.9857 53.0097 53.6569 52.9947 52.3281 52.9947C45.2176 52.9947 38.1045 52.9947 30.9941 52.9947H30.9915ZM5.89804 28.343C5.88795 28.4157 5.87282 28.4734 5.87282 28.531C5.87786 36.0097 5.88543 43.4884 5.87786 50.9671C5.87786 51.3606 5.99889 51.4433 6.36703 51.4433C22.7262 51.4333 39.0854 51.4333 55.4446 51.4308C56.1228 51.4308 56.1203 51.4282 56.1203 50.7741C56.1203 43.4333 56.1203 36.0899 56.1203 28.7491C56.1203 28.6187 56.1027 28.4859 56.0901 28.3455C51.7406 29.0999 48.5358 27.5235 46.3547 23.7465C44.6528 26.7465 42.1691 28.5511 38.6769 28.546C35.1973 28.5385 32.6532 26.8267 31.0016 23.7666C29.2996 26.8017 26.7984 28.5536 23.3061 28.541C19.8089 28.5285 17.3 26.7716 15.6485 23.7566C13.4094 27.4784 10.2475 29.1475 5.89551 28.3455L5.89804 28.343ZM30.1796 19.3881C30.2023 19.318 30.2174 19.2879 30.2174 19.2603C30.2174 13.5761 30.2124 7.8894 30.2074 2.20519C30.2074 1.57612 30.1998 1.57862 29.5518 1.57862C26.8362 1.57862 24.1206 1.57361 21.405 1.58113C20.3207 1.58364 20.5124 1.44078 20.2804 2.49341C19.2693 7.10745 18.2758 11.7265 17.2748 16.343C17.058 17.3455 16.8462 18.348 16.6243 19.3881H30.1746H30.1796ZM45.3512 19.3881C45.3613 19.2804 45.3789 19.2328 45.3689 19.1927C44.8948 17.0348 44.4107 14.8769 43.9417 12.719C43.1601 9.12499 42.386 5.5285 41.6195 1.9295C41.5564 1.63877 41.4228 1.57862 41.1505 1.57862C38.2054 1.58614 35.2629 1.58865 32.3178 1.5686C31.9194 1.56609 31.8034 1.66384 31.8034 2.06985C31.8135 7.58865 31.8034 13.1074 31.8009 18.6287C31.8009 18.8794 31.8009 19.13 31.8009 19.3881H45.3512ZM43.1777 1.57612C43.1928 1.73401 43.1928 1.79416 43.2054 1.8493C44.4334 7.51597 45.6714 13.1801 46.8767 18.8518C46.9775 19.323 47.154 19.4182 47.5877 19.4157C51.6775 19.4032 55.7648 19.4082 59.8546 19.4082C59.9983 19.4082 60.1395 19.3856 60.3312 19.3706C60.2681 19.14 60.2429 18.9571 60.1723 18.7967C59.4814 17.2478 58.8006 15.6939 58.0871 14.1576C56.2035 10.1049 54.3024 6.05983 52.4214 2.00469C52.2675 1.67637 52.081 1.56609 51.7305 1.5686C49.1208 1.58113 46.5136 1.57612 43.9039 1.57612C43.677 1.57612 43.4526 1.57612 43.1777 1.57612ZM1.60904 19.3831C1.82841 19.4057 1.90153 19.4207 1.97718 19.4207C6.20061 19.4207 10.4266 19.4157 14.65 19.4182C14.9097 19.4182 15.0232 19.3305 15.0761 19.0673C15.2904 17.9997 15.5275 16.9345 15.7594 15.8694C16.7579 11.2704 17.7564 6.66885 18.7675 2.07236C18.8507 1.6889 18.7927 1.56359 18.3666 1.57111C16.7352 1.59366 15.1039 1.58113 13.4725 1.58113C12.3605 1.58113 11.246 1.5686 10.1341 1.59867C9.95757 1.60369 9.70795 1.76158 9.62726 1.91948C9.23644 2.6889 8.89856 3.48339 8.53295 4.26534C6.40989 8.82424 4.27926 13.3806 2.16124 17.942C1.95448 18.3881 1.80824 18.8618 1.61157 19.3831H1.60904ZM30.1393 21.0348H16.5159C16.8084 23.744 19.1155 26.6563 22.696 26.9496C26.4807 27.2578 29.5543 24.8067 30.1368 21.0348H30.1393ZM45.4848 21.0448H31.8614C32.3304 24.6212 35.4116 27.1425 39.1232 26.9571C42.5776 26.7866 45.1444 23.9947 45.4848 21.0448ZM47.2095 21.0548C47.6583 23.4683 48.9115 25.2002 51.0346 26.2729C54.8747 28.2102 59.3453 26.0924 60.2706 21.9195C60.4102 21.2912 60.1605 20.9846 59.5218 20.9997C59.4613 20.9997 59.4007 20.9997 59.3377 20.9997C55.4824 20.9922 51.6246 20.9846 47.7693 20.9796C47.5953 20.9796 47.4188 21.0247 47.207 21.0523L47.2095 21.0548ZM14.7761 21.0473C14.5517 21.0272 14.3298 20.9922 14.1054 20.9897C12.9455 20.9821 11.7881 20.9846 10.6283 20.9821C7.76139 20.9796 4.8945 20.9796 2.02761 20.9721C1.77042 20.9721 1.56366 20.9897 1.61661 21.3355C1.92675 23.3856 2.90507 25.0298 4.70791 26.0924C8.75988 28.4834 14.1785 25.7766 14.7761 21.0473Z" fill="white"/>
<path d="M37.8289 30.6016C42.0246 30.6016 46.2178 30.6016 50.4135 30.6016C51.5204 30.6016 51.9591 31.0402 51.9591 32.1479C51.9642 36.5765 51.9667 41.0026 51.9692 45.4311C51.9692 46.4938 51.4447 47.0176 50.363 47.0201C45.4966 47.0201 40.6302 47.0201 35.7638 47.0201C32.2716 47.0201 28.7769 47.0201 25.2847 47.0151C24.0592 47.0151 23.5953 46.5665 23.5928 45.3409C23.5928 40.96 23.5928 36.5765 23.6054 32.1955C23.6079 31.0702 24.0971 30.6041 25.2418 30.6041C29.4375 30.6041 33.6307 30.6041 37.8264 30.6041L37.8289 30.6016ZM50.4084 45.4111C50.4084 45.2181 50.4084 45.0552 50.4084 44.8898C50.4084 40.8271 50.3983 36.762 50.416 32.6993C50.416 32.2407 50.2697 32.1554 49.8487 32.1554C42.1154 32.168 34.3821 32.163 26.6463 32.163C26.2806 32.163 25.915 32.1705 25.5494 32.163C25.262 32.1554 25.1561 32.2582 25.1586 32.5665C25.1712 36.4186 25.1687 40.2682 25.1687 44.1204C25.1687 44.5414 25.1687 44.9625 25.1687 45.4111H50.4109H50.4084Z" fill="white"/>
<path d="M37.8289 30.6016C42.0246 30.6016 46.2178 30.6016 50.4135 30.6016C51.5204 30.6016 51.9591 31.0402 51.9591 32.1479C51.9642 36.5765 51.9667 41.0026 51.9692 45.4311C51.9692 46.4938 51.4447 47.0176 50.363 47.0201C45.4966 47.0201 40.6302 47.0201 35.7638 47.0201C32.2716 47.0201 28.7769 47.0201 25.2847 47.0151C24.0592 47.0151 23.5953 46.5665 23.5928 45.3409C23.5928 40.96 23.5928 36.5765 23.6054 32.1955C23.6079 31.0702 24.0971 30.6041 25.2418 30.6041C29.4375 30.6041 33.6307 30.6041 37.8264 30.6041L37.8289 30.6016Z" fill="white"/>
<path d="M50.409 45.4109C50.409 45.2179 50.409 45.055 50.409 44.8896C50.409 40.827 50.399 36.7618 50.4166 32.6991C50.4166 32.2405 50.2704 32.1553 49.8493 32.1553C42.116 32.1678 34.3827 32.1628 26.6469 32.1628C26.2813 32.1628 25.9157 32.1703 25.55 32.1628C25.2626 32.1553 25.1567 32.258 25.1592 32.5663C25.1718 36.4184 25.1693 40.2681 25.1693 44.1202C25.1693 44.5412 25.1693 44.9623 25.1693 45.4109H50.4116H50.409Z" fill="#DFBB00"/>
<path d="M19.5307 40.1177C19.5307 42.7568 19.5307 45.3959 19.5307 48.035C19.5307 48.9348 19.0214 49.4435 18.1162 49.446C15.2947 49.4511 12.4706 49.4536 9.64912 49.4586C9.52809 49.4586 9.40454 49.4561 9.28351 49.4511C8.48673 49.4135 8.0127 48.9323 8.0127 48.1428C8.0127 42.8496 8.01774 37.5563 8.0253 32.2631C8.0253 31.0475 8.46403 30.619 9.68694 30.6165C12.4479 30.609 15.2089 30.6064 17.9724 30.6064C19.0642 30.6064 19.5408 31.0726 19.5408 32.1578C19.5458 34.812 19.5408 37.4661 19.5408 40.1202H19.5307V40.1177ZM17.9497 40.0726C17.9497 40.0726 17.9371 40.0726 17.9296 40.0726C17.9296 37.5864 17.9245 35.1002 17.9371 32.614C17.9371 32.2831 17.8514 32.1628 17.5034 32.1628C15.0173 32.1729 12.5311 32.1704 10.045 32.1578C9.69703 32.1578 9.55078 32.2405 9.56843 32.6165C9.59869 33.2681 9.576 33.9197 9.576 34.5714C9.576 38.8771 9.576 43.1829 9.56843 47.4886C9.56843 47.7643 9.61634 47.8972 9.94161 47.8947C12.458 47.8846 14.9744 47.8846 17.4908 47.9022C17.8514 47.9022 17.9598 47.7994 17.9573 47.4385C17.9422 44.9824 17.9497 42.5262 17.9497 40.0701V40.0726Z" fill="white"/>
</g>
<defs>
<clipPath id="clip0_267_114">
<rect width="62" height="53" fill="white"/>
</clipPath>
</defs>
</svg>
