<svg width="10" height="10" viewBox="0 0 10 10" fill="none" xmlns="http://www.w3.org/2000/svg">
<g clip-path="url(#clip0_243_243)">
<g clip-path="url(#clip1_243_243)">
<path d="M3.81602 8.81837C3.68558 8.81837 3.55693 8.788 3.44026 8.72967C3.32359 8.67133 3.2221 8.58663 3.14384 8.48228L0.623129 5.12134C0.489422 4.94306 0.432011 4.71897 0.463526 4.49837C0.495041 4.27776 0.6129 4.07871 0.791176 3.945C0.969451 3.8113 1.19354 3.75389 1.41414 3.7854C1.63475 3.81692 1.8338 3.93478 1.96751 4.11305L3.81602 6.57494L8.18525 0.75211C8.25145 0.663837 8.3344 0.589468 8.42934 0.53325C8.52429 0.477032 8.62938 0.440065 8.73861 0.42446C8.84784 0.408856 8.95908 0.414919 9.06597 0.442304C9.17286 0.469688 9.27331 0.517858 9.36158 0.584063C9.44985 0.650268 9.52422 0.733211 9.58044 0.828157C9.63666 0.923102 9.67362 1.02819 9.68923 1.13742C9.70483 1.24666 9.69877 1.35789 9.67138 1.46478C9.644 1.57167 9.59583 1.67212 9.52963 1.76039L4.48821 8.48228C4.40995 8.58663 4.30846 8.67133 4.19179 8.72967C4.07512 8.788 3.94647 8.81837 3.81602 8.81837Z" fill="#17AEE7"/>
</g>
</g>
<defs>
<clipPath id="clip0_243_243">
<rect width="9.24259" height="9.24259" fill="white" transform="translate(0.455078 -0.00390625)"/>
</clipPath>
<clipPath id="clip1_243_243">
<rect width="9.24259" height="8.40236" fill="white" transform="translate(0.455078 0.416016)"/>
</clipPath>
</defs>
</svg>
