<svg width="10" height="10" viewBox="0 0 10 10" fill="none" xmlns="http://www.w3.org/2000/svg">
<g clip-path="url(#clip0_267_427)">
<g clip-path="url(#clip1_267_427)">
<path d="M3.81602 9.20314C3.68558 9.20314 3.55693 9.17277 3.44026 9.11443C3.32359 9.0561 3.2221 8.9714 3.14384 8.86704L0.623129 5.5061C0.489422 5.32783 0.432011 5.10374 0.463526 4.88313C0.495041 4.66253 0.6129 4.46348 0.791176 4.32977C0.969451 4.19606 1.19354 4.13865 1.41414 4.17017C1.63475 4.20168 1.8338 4.31954 1.96751 4.49782L3.81602 6.95971L8.18525 1.13688C8.25145 1.0486 8.3344 0.974234 8.42934 0.918016C8.52429 0.861797 8.62938 0.824831 8.73861 0.809226C8.84784 0.793621 8.95908 0.799685 9.06597 0.827069C9.17286 0.854454 9.27331 0.902624 9.36158 0.968828C9.44985 1.03503 9.52422 1.11798 9.58044 1.21292C9.63666 1.30787 9.67362 1.41296 9.68923 1.52219C9.70483 1.63142 9.69877 1.74266 9.67138 1.84955C9.644 1.95644 9.59583 2.05689 9.52963 2.14516L4.48821 8.86704C4.40995 8.9714 4.30846 9.0561 4.19179 9.11443C4.07512 9.17277 3.94647 9.20314 3.81602 9.20314Z" fill="#6155A8"/>
</g>
</g>
<defs>
<clipPath id="clip0_267_427">
<rect width="9.24259" height="9.24259" fill="white" transform="translate(0.455078 0.380859)"/>
</clipPath>
<clipPath id="clip1_267_427">
<rect width="9.24259" height="8.40236" fill="white" transform="translate(0.455078 0.800781)"/>
</clipPath>
</defs>
</svg>
