<svg width="58" height="58" viewBox="0 0 58 58" fill="none" xmlns="http://www.w3.org/2000/svg">
<path d="M9.66667 14.5007L24.4267 25.647L24.4318 25.6512C26.0705 26.853 26.8905 27.4542 27.7888 27.6865C28.5824 27.8919 29.4169 27.8919 30.2108 27.6865C31.1095 27.454 31.9319 26.851 33.5738 25.647C33.5738 25.647 43.0411 18.3817 48.3333 14.5007M7.25 38.1845V19.8178C7.25 17.1109 7.25 15.7564 7.77681 14.7225C8.24018 13.813 8.97905 13.0742 9.88852 12.6108C10.9224 12.084 12.2769 12.084 14.9838 12.084H43.0171C45.7241 12.084 47.0757 12.084 48.1096 12.6108C49.0189 13.0742 49.7604 13.813 50.2237 14.7225C50.75 15.7554 50.75 17.1082 50.75 19.8098V38.1927C50.75 40.8943 50.75 42.2452 50.2237 43.2781C49.7604 44.1875 49.0189 44.9277 48.1096 45.391C47.0767 45.9173 45.7258 45.9173 43.0242 45.9173H14.9759C12.2742 45.9173 10.9214 45.9173 9.88852 45.391C8.97905 44.9277 8.24018 44.1875 7.77681 43.2781C7.25 42.2442 7.25 40.8914 7.25 38.1845Z" stroke="black" stroke-width="2" stroke-linecap="round" stroke-linejoin="round"/>
</svg>
