<svg width="31" height="31" viewBox="0 0 31 31" fill="none" xmlns="http://www.w3.org/2000/svg">
<path d="M9.72595 11.1477C11.6618 16.4287 13.6659 18.5358 18.7644 20.7801L16.5548 23.8832C10.7002 21.0802 7.78417 16.3554 6.4108 12.6682L9.72595 11.1477Z" fill="#F4F4F8"/>
<path d="M11.3499 3.85628C12.3851 3.85223 13.1721 4.71358 13.1016 5.68892C12.9905 7.22378 13.1088 8.33116 13.4271 9.7038C13.602 10.4578 13.2064 11.2236 12.5777 11.7168C11.7304 12.3816 11.083 13.2288 10.5685 13.958C9.85541 14.9687 7.40132 14.8961 6.85859 13.795C5.7432 11.5321 4.98731 7.36291 6.61609 4.54616C6.87194 4.10372 7.38707 3.87178 7.92086 3.86969L11.3499 3.85628Z" fill="#F4F4F8"/>
<path d="M27.0738 20.6268C27.2026 19.6568 26.3918 18.8153 25.358 18.7641C23.7313 18.6837 22.5814 18.4396 21.1768 17.9761C20.4053 17.7215 19.5527 18.0003 18.9586 18.5304C18.1579 19.2448 17.1896 19.7499 16.3611 20.1446C15.2129 20.6916 14.9941 23.0012 16.0863 23.6424C18.3309 24.9603 22.6226 26.1704 25.7793 24.982C26.2752 24.7954 26.581 24.3403 26.6474 23.8401L27.0738 20.6268Z" fill="#F4F4F8"/>
</svg>
