<svg width="43" height="43" viewBox="0 0 43 43" fill="none" xmlns="http://www.w3.org/2000/svg">
<path fill-rule="evenodd" clip-rule="evenodd" d="M13.4606 2.117C15.5406 2.02166 16.2036 2 21.5 2C26.7974 2 27.4594 2.02274 29.5383 2.117C31.615 2.21126 33.0332 2.54167 34.2736 3.02375C35.5746 3.51357 36.7531 4.28104 37.7272 5.27276C38.719 6.24675 39.4866 7.42536 39.9762 8.72642C40.4583 9.96683 40.7876 11.3849 40.883 13.4606C40.9784 15.5406 41 16.2036 41 21.5C41 26.7964 40.9773 27.4594 40.883 29.5395C40.7887 31.615 40.4583 33.0332 39.9762 34.2736C39.4779 35.5552 38.8105 36.6439 37.7272 37.7272C36.7533 38.719 35.5746 39.4866 34.2736 39.9762C33.0332 40.4583 31.615 40.7876 29.5395 40.883C27.4594 40.9784 26.7964 41 21.5 41C16.2036 41 15.5406 40.9773 13.4606 40.883C11.3849 40.7887 9.96683 40.4583 8.72642 39.9762C7.44483 39.4779 6.35609 38.8105 5.27276 37.7272C4.28086 36.7533 3.51334 35.5746 3.02375 34.2736C2.54167 33.0332 2.21234 31.615 2.117 29.5395C2.02166 27.4594 2 26.7974 2 21.5C2 16.2025 2.02274 15.5406 2.117 13.4617C2.21126 11.3849 2.54167 9.96683 3.02375 8.72642C3.51357 7.42545 4.28104 6.24689 5.27276 5.27276C6.24673 4.28086 7.42534 3.51334 8.72642 3.02375C9.96683 2.54167 11.3849 2.21234 13.4606 2.117ZM29.3801 5.627C27.3239 5.53383 26.7065 5.51324 21.5 5.51324C16.2935 5.51324 15.676 5.53383 13.6198 5.627C11.7186 5.71367 10.6862 6.03108 9.99933 6.29867C9.08933 6.65183 8.43933 7.07433 7.75682 7.75682C7.07542 8.43933 6.65183 9.08933 6.29867 9.99933C6.03108 10.6862 5.71367 11.7186 5.627 13.6198C5.53383 15.676 5.51324 16.2935 5.51324 21.5C5.51324 26.7065 5.53383 27.3239 5.627 29.3801C5.71367 31.2814 6.03108 32.3138 6.29867 33.0007C6.61106 33.8478 7.10934 34.6139 7.75682 35.2432C8.38597 35.8906 9.15226 36.389 9.99933 36.7013C10.6862 36.969 11.7186 37.2863 13.6198 37.373C15.676 37.4662 16.2924 37.4868 21.5 37.4868C26.7076 37.4868 27.3239 37.4662 29.3801 37.373C31.2814 37.2863 32.3138 36.969 33.0007 36.7013C33.9107 36.3482 34.5607 35.9257 35.2432 35.2432C35.8906 34.6141 36.389 33.8478 36.7013 33.0007C36.969 32.3138 37.2863 31.2814 37.373 29.3801C37.4662 27.3239 37.4868 26.7065 37.4868 21.5C37.4868 16.2935 37.4662 15.676 37.373 13.6198C37.2863 11.7186 36.969 10.6862 36.7013 9.99933C36.3482 9.08933 35.9257 8.43933 35.2432 7.75682C34.5607 7.07542 33.9107 6.65183 33.0007 6.29867C32.3138 6.03108 31.2814 5.71367 29.3801 5.627ZM19.0102 27.5111C19.7996 27.8382 20.6455 28.0064 21.5 28.0064C23.2257 28.0064 24.8806 27.3209 26.1008 26.1008C27.3211 24.8806 28.0066 23.2256 28.0066 21.5C28.0066 19.7744 27.3211 18.1194 26.1008 16.8992C24.8806 15.679 23.2257 14.9935 21.5 14.9935C20.6455 14.9935 19.7996 15.1618 19.0102 15.4888C18.2206 15.8157 17.5034 16.295 16.8993 16.8992C16.2951 17.5034 15.8158 18.2206 15.4888 19.01C15.1618 19.7994 14.9936 20.6455 14.9936 21.5C14.9936 22.3545 15.1618 23.2006 15.4888 23.99C15.8158 24.7794 16.2951 25.4966 16.8993 26.1008C17.5034 26.7049 18.2206 27.1842 19.0102 27.5111ZM14.4127 14.4127C16.2924 12.533 18.8418 11.477 21.5 11.477C24.1584 11.477 26.7077 12.533 28.5874 14.4127C30.467 16.2923 31.523 18.8418 31.523 21.5C31.523 24.1582 30.467 26.7076 28.5874 28.5874C26.7077 30.467 24.1584 31.523 21.5 31.523C18.8418 31.523 16.2924 30.467 14.4127 28.5874C12.533 26.7076 11.4771 24.1582 11.4771 21.5C11.4771 18.8418 12.533 16.2923 14.4127 14.4127ZM33.7455 12.9703C34.1897 12.526 34.4393 11.9234 34.4393 11.295C34.4393 10.6666 34.1897 10.064 33.7455 9.61968C33.301 9.17536 32.6985 8.92574 32.0701 8.92574C31.4418 8.92574 30.8391 9.17536 30.3948 9.61968C29.9504 10.064 29.7008 10.6666 29.7008 11.295C29.7008 11.9234 29.9504 12.526 30.3948 12.9703C30.8391 13.4146 31.4418 13.6642 32.0701 13.6642C32.6985 13.6642 33.301 13.4146 33.7455 12.9703Z" fill="white"/>
</svg>
