<svg width="43" height="44" viewBox="0 0 43 44" fill="none" xmlns="http://www.w3.org/2000/svg">
<path fill-rule="evenodd" clip-rule="evenodd" d="M2 5.25812C2 4.39402 2.34327 3.5653 2.95428 2.95428C3.5653 2.34327 4.39402 2 5.25812 2H37.7418C38.1697 2 38.5934 2.08428 38.9886 2.24802C39.3839 2.41175 39.7431 2.65174 40.0457 2.95428C40.3481 3.25683 40.5882 3.616 40.752 4.01129C40.9156 4.40659 41 4.83025 41 5.25812V37.7418C41 38.1697 40.9156 38.5934 40.752 38.9886C40.5882 39.3839 40.3481 39.7431 40.0457 40.0457C39.7431 40.3481 39.3839 40.5882 38.9886 40.752C38.5934 40.9156 38.1697 41 37.7418 41H5.25812C4.39402 41 3.5653 40.6566 2.95428 40.0457C2.34327 39.4346 2 38.606 2 37.7418V5.25812ZM17.4375 16.8687H22.7188V19.5224C23.48 17.9964 25.4308 16.625 28.3615 16.625C33.9791 16.625 35.3125 19.6621 35.3125 25.235V35.5562H29.625V26.5041C29.625 23.3306 28.8637 21.5406 26.9275 21.5406C24.2422 21.5406 23.125 23.4703 23.125 26.5041V35.5562H17.4375V16.8687ZM7.68749 35.3125H13.375V16.625H7.68749V35.3125ZM14.1875 10.5312C14.1875 11.0114 14.0929 11.4868 13.9092 11.9304C13.7254 12.374 13.4561 12.7771 13.1166 13.1166C12.7771 13.4561 12.374 13.7254 11.9304 13.9092C11.4868 14.0929 11.0114 14.1875 10.5312 14.1875C10.0511 14.1875 9.57565 14.0929 9.13206 13.9092C8.68845 13.7254 8.2854 13.4561 7.94587 13.1166C7.60636 12.7771 7.33706 12.374 7.1533 11.9304C6.96957 11.4868 6.87499 11.0114 6.87499 10.5312C6.87499 9.56154 7.2602 8.63156 7.94587 7.94587C8.63156 7.2602 9.56154 6.87499 10.5312 6.87499C11.5009 6.87499 12.4309 7.2602 13.1166 7.94587C13.8023 8.63156 14.1875 9.56154 14.1875 10.5312Z" fill="white"/>
</svg>
