<svg width="55" height="55" viewBox="0 0 55 55" fill="none" xmlns="http://www.w3.org/2000/svg">
<g clip-path="url(#clip0_267_195)">
<mask id="mask0_267_195" style="mask-type:luminance" maskUnits="userSpaceOnUse" x="0" y="0" width="55" height="55">
<path d="M55 0H0V55H55V0Z" fill="white"/>
</mask>
<g mask="url(#mask0_267_195)">
<path d="M53.8529 14.9101C53.55 13.812 52.9452 12.8081 52.0993 11.9989C51.2533 11.1898 50.1959 10.6038 49.0329 10.2998C44.7294 9.16745 27.4862 9.16745 27.4862 9.16745C20.2962 9.08626 13.1082 9.44649 5.96822 10.2459C4.80485 10.5721 3.74915 11.1716 2.90077 11.9877C2.05241 12.8038 1.43936 13.8095 1.1195 14.9101C0.348111 19.0673 -0.0263559 23.281 0.000562503 27.5007C-0.0282018 31.7206 0.34628 35.9345 1.1195 40.0916C1.43278 41.189 2.04451 42.1912 2.89461 42.9997C3.7447 43.808 4.80391 44.3944 5.96822 44.7017C10.3292 45.834 27.4862 45.834 27.4862 45.834C34.6857 45.9154 41.8833 45.5551 49.0329 44.7556C50.1959 44.4517 51.2533 43.8657 52.0993 43.0565C52.9452 42.2473 53.55 41.2434 53.8529 40.1454C54.644 35.9902 55.0281 31.7758 55.0006 27.5548C55.06 23.3147 54.6754 19.0794 53.8529 14.9101ZM22.0063 35.3464V19.6552L36.3517 27.5007L22.0063 35.3464Z" fill="white"/>
</g>
</g>
<defs>
<clipPath id="clip0_267_195">
<rect width="55" height="55" fill="white"/>
</clipPath>
</defs>
</svg>
